<svg width="1348" height="551" viewBox="0 0 1348 551" fill="none" xmlns="http://www.w3.org/2000/svg">
<mask id="mask0_104_2607" style="mask-type:luminance" maskUnits="userSpaceOnUse" x="0" y="0" width="1348" height="551">
<path d="M1348 0H0V551H1348V0Z" fill="white"/>
</mask>
<g mask="url(#mask0_104_2607)">
<path fill-rule="evenodd" clip-rule="evenodd" d="M124.128 -122.065C474.586 137.901 846.297 156.426 1225.49 -126.986C1100.78 -225.494 941.533 -322.09 739.12 -416.306C698.006 -435.447 644.063 -434.831 603.713 -414.912C423.182 -325.827 264.635 -229.404 133.666 -129.391C130.475 -126.949 127.296 -124.507 124.128 -122.065Z" fill="#ED2D2E"/>
<path fill-rule="evenodd" clip-rule="evenodd" d="M1451.18 97.3361C1249.48 351.074 882.996 461.298 343.785 421.116C707.082 709.35 1124 787.101 1614.06 577.591C1621.37 526.493 1620.72 472.596 1612.13 415.936C1582.23 308.424 1531.77 202.035 1451.18 97.3237V97.3361Z" fill="#00A5D9"/>
<path fill-rule="evenodd" clip-rule="evenodd" d="M1614.06 577.603C1124 787.113 707.082 709.35 343.785 421.128C140.922 364.961 161.468 255.39 -214.826 250.839C-230.924 281.5 -243.966 312.063 -253.817 342.44C292.898 488.703 137.855 913.371 876.256 1129.75C906.811 1125.56 937.714 1120.5 968.931 1114.56C1365.76 999.151 1579.38 819.673 1614.05 577.603H1614.06Z" fill="#7ACFE6"/>
<path fill-rule="evenodd" clip-rule="evenodd" d="M876.256 1129.74C137.855 913.359 292.898 488.703 -253.817 342.44C-270.69 394.475 -278.205 445.955 -275.599 496.412C-242.674 930.49 240.315 1217.03 876.256 1129.74Z" fill="#00A5D9"/>
<path fill-rule="evenodd" clip-rule="evenodd" d="M343.785 421.116C882.996 461.298 1249.48 351.061 1451.18 97.3362C1392.91 21.6208 1318.88 -53.219 1225.49 -126.986C846.297 156.426 474.586 137.901 124.128 -122.065C-32.8686 -0.702911 -149.179 125.802 -214.815 250.839C161.479 255.39 140.934 364.961 343.796 421.128L343.785 421.116Z" fill="black"/>
</g>
</svg>
