<svg width="72" height="72" viewBox="0 0 72 72" fill="none" xmlns="http://www.w3.org/2000/svg">
<path d="M53.7304 21.051C52.706 20.0173 51.4897 19.1974 50.1509 18.6379C48.8122 18.0785 47.3773 17.7905 45.9282 17.7905C44.4791 17.7905 43.0442 18.0785 41.7054 18.6379C40.3667 19.1974 39.1504 20.0173 38.126 21.051L35.9999 23.1952L33.8738 21.051C31.8046 18.9641 28.998 17.7916 26.0716 17.7916C23.1452 17.7916 20.3387 18.9641 18.2694 21.051C16.2001 23.138 15.0376 25.9685 15.0376 28.9199C15.0376 31.8714 16.2001 34.7019 18.2694 36.7889L20.3954 38.9331L35.9999 54.6709L51.6044 38.9331L53.7304 36.7889C54.7553 35.7557 55.5684 34.5289 56.1231 33.1788C56.6778 31.8286 56.9633 30.3814 56.9633 28.9199C56.9633 27.4584 56.6778 26.0113 56.1231 24.6611C55.5684 23.3109 54.7553 22.0842 53.7304 21.051Z" stroke="#ED2D2E" stroke-width="3.63291" stroke-linecap="round" stroke-linejoin="round"/>
</svg>
