<svg width="72" height="72" viewBox="0 0 72 72" fill="none" xmlns="http://www.w3.org/2000/svg">
<g clip-path="url(#clip0_104_2524)">
<mask id="path-1-outside-1_104_2524" maskUnits="userSpaceOnUse" x="23.6357" y="0.42041" width="37" height="37" fill="black">
<rect fill="white" x="23.6357" y="0.42041" width="37" height="37"/>
<path d="M43.7978 4.24267C46.5816 4.24267 49.3653 4.23493 52.1478 4.25042C52.5732 4.253 52.7219 4.14197 52.5977 3.7198C52.5357 3.50677 52.5098 3.28213 52.4852 3.06136C52.4154 2.44553 52.6107 1.97688 53.186 1.94202C54.0252 1.89167 54.7376 1.41656 55.5832 1.42043C56.4365 1.42431 56.6279 1.47982 56.7094 2.09178C56.7624 2.49072 56.2064 3.04329 55.6698 3.10784C55.3634 3.14528 55.0531 3.15173 54.7466 3.18014C54.3652 3.215 54.1984 3.43577 54.2463 3.81017C54.3484 4.62482 54.6393 5.39558 54.8139 6.19216C54.832 6.2735 54.9147 6.34838 54.9134 6.42455C54.907 7.36056 55.3518 8.19845 55.4849 9.11123C55.6414 10.1841 55.9426 11.2389 56.2219 12.2898C56.5012 13.3394 56.6551 14.4187 56.9938 15.4542C57.1554 15.9473 57.5007 15.7434 57.7321 15.6285C58.2351 15.3793 58.7561 15.3806 59.2888 15.3599C59.7233 15.3431 59.9276 15.6272 60.0375 15.9473C60.1474 16.2675 59.9767 16.5386 59.6599 16.6987C59.4776 16.7904 59.3095 16.9802 59.1272 16.9918C58.2558 17.0499 57.4425 17.4166 56.5646 17.4411C56.0474 17.4553 55.7461 17.2358 55.6634 16.7375C55.591 16.3063 55.3867 16.3011 55.0557 16.4857C54.2165 16.9531 53.3593 17.3869 52.5266 17.8671C51.8375 18.2635 50.9919 18.4481 50.5303 19.1685C49.9381 20.0929 49.43 21.0715 48.8119 21.9778C48.1642 22.9268 47.581 23.917 46.9707 24.8853C46.2855 25.9724 45.5911 27.0633 44.9537 28.1839C44.5813 28.8385 44.2271 29.5357 43.5883 29.9824C43.2509 30.2186 42.9548 30.5543 42.5035 30.6008C42.2643 30.6253 42.2618 30.7996 42.2592 30.9791C42.2553 31.3909 42.2036 31.8079 42.2527 32.2133C42.3355 32.8937 42.0045 33.463 41.8286 34.0737C41.7976 34.1834 41.7316 34.3474 41.6502 34.3707C41.0942 34.5243 41.2985 34.8122 41.4537 35.1543C41.7898 35.8954 41.2688 36.2917 40.6003 36.3421C40.0521 36.3834 39.2466 35.7547 39.0539 35.2395C38.8936 34.8122 39.2 34.0737 39.6564 34.0479C40.4749 34.0001 40.3624 33.321 40.5007 32.8872C40.6637 32.3773 40.6029 31.8002 40.6714 31.2566C40.7361 30.748 40.4878 30.4368 40.0754 30.2238C38.9841 29.6596 38.5613 28.6887 38.4423 27.5436C38.4216 27.3473 38.5083 27.1408 38.5341 26.9381C38.56 26.7328 38.794 26.4772 38.5341 26.3326C38.2665 26.1841 37.9045 26.2732 37.7299 26.4901C37.3718 26.9329 37.0795 27.4196 36.8378 27.9541C36.2352 29.2865 36.4201 30.6692 36.4279 32.0455C36.4279 32.2507 36.446 32.456 36.4447 32.6613C36.4408 33.0344 36.1706 33.2139 35.8797 33.3184C35.5862 33.4243 35.3599 33.2487 35.1789 33.0163C34.7574 32.4728 34.8285 31.8182 34.7613 31.196C34.7251 30.8577 34.8686 30.4639 34.672 30.1876C34.4354 29.8571 34.0592 30.1928 33.7346 30.1502C32.7416 30.0224 31.931 29.6105 31.2418 28.8746C30.1816 27.7424 29.0722 26.654 27.99 25.5424C27.125 24.6555 26.2367 23.7892 25.417 22.8622C24.402 21.7145 24.4408 20.2375 25.161 19.0162C25.6523 18.1822 26.0997 17.3236 26.5871 16.487C27.3151 15.2373 28.0223 13.9746 28.7231 12.7107C29.1873 11.8754 29.7122 11.0723 30.126 10.2035C30.5087 9.40171 31.0647 8.68389 31.459 7.88731C31.7551 7.28955 32.1249 6.73698 32.4145 6.13406C32.7572 5.42269 33.3338 4.85979 34.1135 4.56027C34.8117 4.29173 35.5293 4.22202 36.2753 4.22976C38.7837 4.25171 41.292 4.2388 43.8017 4.2388V4.24138L43.7978 4.24267ZM31.6245 20.7901C31.4926 20.049 31.8392 19.4693 32.262 18.8574C32.9046 17.9265 33.6454 17.077 34.3837 16.234C35.1931 15.3121 35.7672 14.1799 37.0899 13.7048C38.1204 13.3343 38.935 13.586 39.7431 14.0547C40.4154 14.4446 41.0179 14.9649 41.6282 15.4503C42.5385 16.1746 43.0983 17.1738 42.9095 18.3448C42.7725 19.2008 42.4492 20.0477 42.1519 20.8701C41.6631 22.2231 41.2248 23.5942 40.7619 24.9537C40.5434 25.598 40.3184 26.2693 40.1426 26.9419C39.928 27.7669 40.162 28.2988 40.7218 28.7998C41.1227 29.1574 42.1803 29.1045 42.5863 28.7468C43.1061 28.2885 43.3259 27.6391 43.7047 27.093C44.5296 25.9078 45.1994 24.6271 45.9971 23.4264C46.4898 22.6853 46.9488 21.9223 47.4116 21.1619C47.8474 20.4467 48.2521 19.7133 48.6994 19.0071C48.9839 18.5579 49.2955 18.1189 49.6433 17.7187C50.295 16.9711 51.2699 16.7039 52.1025 16.2572C52.9494 15.8027 53.7808 15.2683 54.7208 14.9803C54.9587 14.908 55.11 14.655 55.066 14.4613C54.9781 14.0727 55.0376 13.6583 54.894 13.2968C54.4738 12.2407 54.3497 11.1162 54.0782 10.0279C53.7834 8.84656 53.4524 7.673 53.2688 6.46328C53.2145 6.1005 52.9895 5.8539 52.5176 5.8552C48.6167 5.86294 44.7158 5.83841 40.8149 5.83583C39.0112 5.83583 37.2063 5.84358 35.4026 5.8836C34.844 5.89651 34.3772 6.16247 34.0592 6.66339C33.2317 7.96994 32.518 9.34233 31.7461 10.6811C31.2677 11.5113 30.7776 12.335 30.3122 13.1716C29.9113 13.8907 29.4808 14.5956 29.0968 15.316C28.6365 16.1772 28.1051 16.997 27.6642 17.8684C27.2763 18.6353 26.7539 19.3364 26.3893 20.1136C26.1423 20.6377 26.0842 21.2355 26.5535 21.739C26.8315 22.0372 27.072 22.3703 27.3603 22.6556C29.1381 24.4154 30.8914 26.1983 32.6007 28.0238C33.1994 28.6629 33.8601 28.7029 34.6022 28.233C35.4646 27.6869 35.4698 26.7547 35.016 26.104C34.407 25.2339 33.6609 24.4618 32.9808 23.6407C32.2943 22.8106 31.4474 22.0553 31.6219 20.7914L31.6245 20.7901ZM38.5833 24.6452C39.0953 24.7936 39.253 24.4941 39.403 24.0345C39.5918 23.4548 39.6707 22.8235 39.9396 22.2967C40.2008 21.7868 40.2771 21.2342 40.4775 20.7165C40.7542 20 40.9455 19.2421 41.217 18.5127C41.3787 18.0776 41.3774 17.6257 41.0632 17.1984C40.6391 16.6251 40.0353 16.2817 39.4909 15.8608C39.1224 15.5755 38.7617 15.2463 38.2962 15.1559C37.4312 14.9881 36.958 15.6336 36.4912 16.1694C35.5603 17.2397 34.6914 18.3629 33.7812 19.4513C33.0817 20.2879 32.9873 21.109 33.5045 21.7674C34.4199 22.9358 35.4116 24.0397 36.3632 25.1771C36.5197 25.3643 36.5675 25.3772 36.7447 25.2248C37.2619 24.782 37.8889 24.64 38.5846 24.6439L38.5833 24.6452Z"/>
</mask>
<path d="M43.7978 4.24267C46.5816 4.24267 49.3653 4.23493 52.1478 4.25042C52.5732 4.253 52.7219 4.14197 52.5977 3.7198C52.5357 3.50677 52.5098 3.28213 52.4852 3.06136C52.4154 2.44553 52.6107 1.97688 53.186 1.94202C54.0252 1.89167 54.7376 1.41656 55.5832 1.42043C56.4365 1.42431 56.6279 1.47982 56.7094 2.09178C56.7624 2.49072 56.2064 3.04329 55.6698 3.10784C55.3634 3.14528 55.0531 3.15173 54.7466 3.18014C54.3652 3.215 54.1984 3.43577 54.2463 3.81017C54.3484 4.62482 54.6393 5.39558 54.8139 6.19216C54.832 6.2735 54.9147 6.34838 54.9134 6.42455C54.907 7.36056 55.3518 8.19845 55.4849 9.11123C55.6414 10.1841 55.9426 11.2389 56.2219 12.2898C56.5012 13.3394 56.6551 14.4187 56.9938 15.4542C57.1554 15.9473 57.5007 15.7434 57.7321 15.6285C58.2351 15.3793 58.7561 15.3806 59.2888 15.3599C59.7233 15.3431 59.9276 15.6272 60.0375 15.9473C60.1474 16.2675 59.9767 16.5386 59.6599 16.6987C59.4776 16.7904 59.3095 16.9802 59.1272 16.9918C58.2558 17.0499 57.4425 17.4166 56.5646 17.4411C56.0474 17.4553 55.7461 17.2358 55.6634 16.7375C55.591 16.3063 55.3867 16.3011 55.0557 16.4857C54.2165 16.9531 53.3593 17.3869 52.5266 17.8671C51.8375 18.2635 50.9919 18.4481 50.5303 19.1685C49.9381 20.0929 49.43 21.0715 48.8119 21.9778C48.1642 22.9268 47.581 23.917 46.9707 24.8853C46.2855 25.9724 45.5911 27.0633 44.9537 28.1839C44.5813 28.8385 44.2271 29.5357 43.5883 29.9824C43.2509 30.2186 42.9548 30.5543 42.5035 30.6008C42.2643 30.6253 42.2618 30.7996 42.2592 30.9791C42.2553 31.3909 42.2036 31.8079 42.2527 32.2133C42.3355 32.8937 42.0045 33.463 41.8286 34.0737C41.7976 34.1834 41.7316 34.3474 41.6502 34.3707C41.0942 34.5243 41.2985 34.8122 41.4537 35.1543C41.7898 35.8954 41.2688 36.2917 40.6003 36.3421C40.0521 36.3834 39.2466 35.7547 39.0539 35.2395C38.8936 34.8122 39.2 34.0737 39.6564 34.0479C40.4749 34.0001 40.3624 33.321 40.5007 32.8872C40.6637 32.3773 40.6029 31.8002 40.6714 31.2566C40.7361 30.748 40.4878 30.4368 40.0754 30.2238C38.9841 29.6596 38.5613 28.6887 38.4423 27.5436C38.4216 27.3473 38.5083 27.1408 38.5341 26.9381C38.56 26.7328 38.794 26.4772 38.5341 26.3326C38.2665 26.1841 37.9045 26.2732 37.7299 26.4901C37.3718 26.9329 37.0795 27.4196 36.8378 27.9541C36.2352 29.2865 36.4201 30.6692 36.4279 32.0455C36.4279 32.2507 36.446 32.456 36.4447 32.6613C36.4408 33.0344 36.1706 33.2139 35.8797 33.3184C35.5862 33.4243 35.3599 33.2487 35.1789 33.0163C34.7574 32.4728 34.8285 31.8182 34.7613 31.196C34.7251 30.8577 34.8686 30.4639 34.672 30.1876C34.4354 29.8571 34.0592 30.1928 33.7346 30.1502C32.7416 30.0224 31.931 29.6105 31.2418 28.8746C30.1816 27.7424 29.0722 26.654 27.99 25.5424C27.125 24.6555 26.2367 23.7892 25.417 22.8622C24.402 21.7145 24.4408 20.2375 25.161 19.0162C25.6523 18.1822 26.0997 17.3236 26.5871 16.487C27.3151 15.2373 28.0223 13.9746 28.7231 12.7107C29.1873 11.8754 29.7122 11.0723 30.126 10.2035C30.5087 9.40171 31.0647 8.68389 31.459 7.88731C31.7551 7.28955 32.1249 6.73698 32.4145 6.13406C32.7572 5.42269 33.3338 4.85979 34.1135 4.56027C34.8117 4.29173 35.5293 4.22202 36.2753 4.22976C38.7837 4.25171 41.292 4.2388 43.8017 4.2388V4.24138L43.7978 4.24267ZM31.6245 20.7901C31.4926 20.049 31.8392 19.4693 32.262 18.8574C32.9046 17.9265 33.6454 17.077 34.3837 16.234C35.1931 15.3121 35.7672 14.1799 37.0899 13.7048C38.1204 13.3343 38.935 13.586 39.7431 14.0547C40.4154 14.4446 41.0179 14.9649 41.6282 15.4503C42.5385 16.1746 43.0983 17.1738 42.9095 18.3448C42.7725 19.2008 42.4492 20.0477 42.1519 20.8701C41.6631 22.2231 41.2248 23.5942 40.7619 24.9537C40.5434 25.598 40.3184 26.2693 40.1426 26.9419C39.928 27.7669 40.162 28.2988 40.7218 28.7998C41.1227 29.1574 42.1803 29.1045 42.5863 28.7468C43.1061 28.2885 43.3259 27.6391 43.7047 27.093C44.5296 25.9078 45.1994 24.6271 45.9971 23.4264C46.4898 22.6853 46.9488 21.9223 47.4116 21.1619C47.8474 20.4467 48.2521 19.7133 48.6994 19.0071C48.9839 18.5579 49.2955 18.1189 49.6433 17.7187C50.295 16.9711 51.2699 16.7039 52.1025 16.2572C52.9494 15.8027 53.7808 15.2683 54.7208 14.9803C54.9587 14.908 55.11 14.655 55.066 14.4613C54.9781 14.0727 55.0376 13.6583 54.894 13.2968C54.4738 12.2407 54.3497 11.1162 54.0782 10.0279C53.7834 8.84656 53.4524 7.673 53.2688 6.46328C53.2145 6.1005 52.9895 5.8539 52.5176 5.8552C48.6167 5.86294 44.7158 5.83841 40.8149 5.83583C39.0112 5.83583 37.2063 5.84358 35.4026 5.8836C34.844 5.89651 34.3772 6.16247 34.0592 6.66339C33.2317 7.96994 32.518 9.34233 31.7461 10.6811C31.2677 11.5113 30.7776 12.335 30.3122 13.1716C29.9113 13.8907 29.4808 14.5956 29.0968 15.316C28.6365 16.1772 28.1051 16.997 27.6642 17.8684C27.2763 18.6353 26.7539 19.3364 26.3893 20.1136C26.1423 20.6377 26.0842 21.2355 26.5535 21.739C26.8315 22.0372 27.072 22.3703 27.3603 22.6556C29.1381 24.4154 30.8914 26.1983 32.6007 28.0238C33.1994 28.6629 33.8601 28.7029 34.6022 28.233C35.4646 27.6869 35.4698 26.7547 35.016 26.104C34.407 25.2339 33.6609 24.4618 32.9808 23.6407C32.2943 22.8106 31.4474 22.0553 31.6219 20.7914L31.6245 20.7901ZM38.5833 24.6452C39.0953 24.7936 39.253 24.4941 39.403 24.0345C39.5918 23.4548 39.6707 22.8235 39.9396 22.2967C40.2008 21.7868 40.2771 21.2342 40.4775 20.7165C40.7542 20 40.9455 19.2421 41.217 18.5127C41.3787 18.0776 41.3774 17.6257 41.0632 17.1984C40.6391 16.6251 40.0353 16.2817 39.4909 15.8608C39.1224 15.5755 38.7617 15.2463 38.2962 15.1559C37.4312 14.9881 36.958 15.6336 36.4912 16.1694C35.5603 17.2397 34.6914 18.3629 33.7812 19.4513C33.0817 20.2879 32.9873 21.109 33.5045 21.7674C34.4199 22.9358 35.4116 24.0397 36.3632 25.1771C36.5197 25.3643 36.5675 25.3772 36.7447 25.2248C37.2619 24.782 37.8889 24.64 38.5846 24.6439L38.5833 24.6452Z" fill="#ED2D2E"/>
<path d="M43.7978 4.24267C46.5816 4.24267 49.3653 4.23493 52.1478 4.25042C52.5732 4.253 52.7219 4.14197 52.5977 3.7198C52.5357 3.50677 52.5098 3.28213 52.4852 3.06136C52.4154 2.44553 52.6107 1.97688 53.186 1.94202C54.0252 1.89167 54.7376 1.41656 55.5832 1.42043C56.4365 1.42431 56.6279 1.47982 56.7094 2.09178C56.7624 2.49072 56.2064 3.04329 55.6698 3.10784C55.3634 3.14528 55.0531 3.15173 54.7466 3.18014C54.3652 3.215 54.1984 3.43577 54.2463 3.81017C54.3484 4.62482 54.6393 5.39558 54.8139 6.19216C54.832 6.2735 54.9147 6.34838 54.9134 6.42455C54.907 7.36056 55.3518 8.19845 55.4849 9.11123C55.6414 10.1841 55.9426 11.2389 56.2219 12.2898C56.5012 13.3394 56.6551 14.4187 56.9938 15.4542C57.1554 15.9473 57.5007 15.7434 57.7321 15.6285C58.2351 15.3793 58.7561 15.3806 59.2888 15.3599C59.7233 15.3431 59.9276 15.6272 60.0375 15.9473C60.1474 16.2675 59.9767 16.5386 59.6599 16.6987C59.4776 16.7904 59.3095 16.9802 59.1272 16.9918C58.2558 17.0499 57.4425 17.4166 56.5646 17.4411C56.0474 17.4553 55.7461 17.2358 55.6634 16.7375C55.591 16.3063 55.3867 16.3011 55.0557 16.4857C54.2165 16.9531 53.3593 17.3869 52.5266 17.8671C51.8375 18.2635 50.9919 18.4481 50.5303 19.1685C49.9381 20.0929 49.43 21.0715 48.8119 21.9778C48.1642 22.9268 47.581 23.917 46.9707 24.8853C46.2855 25.9724 45.5911 27.0633 44.9537 28.1839C44.5813 28.8385 44.2271 29.5357 43.5883 29.9824C43.2509 30.2186 42.9548 30.5543 42.5035 30.6008C42.2643 30.6253 42.2618 30.7996 42.2592 30.9791C42.2553 31.3909 42.2036 31.8079 42.2527 32.2133C42.3355 32.8937 42.0045 33.463 41.8286 34.0737C41.7976 34.1834 41.7316 34.3474 41.6502 34.3707C41.0942 34.5243 41.2985 34.8122 41.4537 35.1543C41.7898 35.8954 41.2688 36.2917 40.6003 36.3421C40.0521 36.3834 39.2466 35.7547 39.0539 35.2395C38.8936 34.8122 39.2 34.0737 39.6564 34.0479C40.4749 34.0001 40.3624 33.321 40.5007 32.8872C40.6637 32.3773 40.6029 31.8002 40.6714 31.2566C40.7361 30.748 40.4878 30.4368 40.0754 30.2238C38.9841 29.6596 38.5613 28.6887 38.4423 27.5436C38.4216 27.3473 38.5083 27.1408 38.5341 26.9381C38.56 26.7328 38.794 26.4772 38.5341 26.3326C38.2665 26.1841 37.9045 26.2732 37.7299 26.4901C37.3718 26.9329 37.0795 27.4196 36.8378 27.9541C36.2352 29.2865 36.4201 30.6692 36.4279 32.0455C36.4279 32.2507 36.446 32.456 36.4447 32.6613C36.4408 33.0344 36.1706 33.2139 35.8797 33.3184C35.5862 33.4243 35.3599 33.2487 35.1789 33.0163C34.7574 32.4728 34.8285 31.8182 34.7613 31.196C34.7251 30.8577 34.8686 30.4639 34.672 30.1876C34.4354 29.8571 34.0592 30.1928 33.7346 30.1502C32.7416 30.0224 31.931 29.6105 31.2418 28.8746C30.1816 27.7424 29.0722 26.654 27.99 25.5424C27.125 24.6555 26.2367 23.7892 25.417 22.8622C24.402 21.7145 24.4408 20.2375 25.161 19.0162C25.6523 18.1822 26.0997 17.3236 26.5871 16.487C27.3151 15.2373 28.0223 13.9746 28.7231 12.7107C29.1873 11.8754 29.7122 11.0723 30.126 10.2035C30.5087 9.40171 31.0647 8.68389 31.459 7.88731C31.7551 7.28955 32.1249 6.73698 32.4145 6.13406C32.7572 5.42269 33.3338 4.85979 34.1135 4.56027C34.8117 4.29173 35.5293 4.22202 36.2753 4.22976C38.7837 4.25171 41.292 4.2388 43.8017 4.2388V4.24138L43.7978 4.24267ZM31.6245 20.7901C31.4926 20.049 31.8392 19.4693 32.262 18.8574C32.9046 17.9265 33.6454 17.077 34.3837 16.234C35.1931 15.3121 35.7672 14.1799 37.0899 13.7048C38.1204 13.3343 38.935 13.586 39.7431 14.0547C40.4154 14.4446 41.0179 14.9649 41.6282 15.4503C42.5385 16.1746 43.0983 17.1738 42.9095 18.3448C42.7725 19.2008 42.4492 20.0477 42.1519 20.8701C41.6631 22.2231 41.2248 23.5942 40.7619 24.9537C40.5434 25.598 40.3184 26.2693 40.1426 26.9419C39.928 27.7669 40.162 28.2988 40.7218 28.7998C41.1227 29.1574 42.1803 29.1045 42.5863 28.7468C43.1061 28.2885 43.3259 27.6391 43.7047 27.093C44.5296 25.9078 45.1994 24.6271 45.9971 23.4264C46.4898 22.6853 46.9488 21.9223 47.4116 21.1619C47.8474 20.4467 48.2521 19.7133 48.6994 19.0071C48.9839 18.5579 49.2955 18.1189 49.6433 17.7187C50.295 16.9711 51.2699 16.7039 52.1025 16.2572C52.9494 15.8027 53.7808 15.2683 54.7208 14.9803C54.9587 14.908 55.11 14.655 55.066 14.4613C54.9781 14.0727 55.0376 13.6583 54.894 13.2968C54.4738 12.2407 54.3497 11.1162 54.0782 10.0279C53.7834 8.84656 53.4524 7.673 53.2688 6.46328C53.2145 6.1005 52.9895 5.8539 52.5176 5.8552C48.6167 5.86294 44.7158 5.83841 40.8149 5.83583C39.0112 5.83583 37.2063 5.84358 35.4026 5.8836C34.844 5.89651 34.3772 6.16247 34.0592 6.66339C33.2317 7.96994 32.518 9.34233 31.7461 10.6811C31.2677 11.5113 30.7776 12.335 30.3122 13.1716C29.9113 13.8907 29.4808 14.5956 29.0968 15.316C28.6365 16.1772 28.1051 16.997 27.6642 17.8684C27.2763 18.6353 26.7539 19.3364 26.3893 20.1136C26.1423 20.6377 26.0842 21.2355 26.5535 21.739C26.8315 22.0372 27.072 22.3703 27.3603 22.6556C29.1381 24.4154 30.8914 26.1983 32.6007 28.0238C33.1994 28.6629 33.8601 28.7029 34.6022 28.233C35.4646 27.6869 35.4698 26.7547 35.016 26.104C34.407 25.2339 33.6609 24.4618 32.9808 23.6407C32.2943 22.8106 31.4474 22.0553 31.6219 20.7914L31.6245 20.7901ZM38.5833 24.6452C39.0953 24.7936 39.253 24.4941 39.403 24.0345C39.5918 23.4548 39.6707 22.8235 39.9396 22.2967C40.2008 21.7868 40.2771 21.2342 40.4775 20.7165C40.7542 20 40.9455 19.2421 41.217 18.5127C41.3787 18.0776 41.3774 17.6257 41.0632 17.1984C40.6391 16.6251 40.0353 16.2817 39.4909 15.8608C39.1224 15.5755 38.7617 15.2463 38.2962 15.1559C37.4312 14.9881 36.958 15.6336 36.4912 16.1694C35.5603 17.2397 34.6914 18.3629 33.7812 19.4513C33.0817 20.2879 32.9873 21.109 33.5045 21.7674C34.4199 22.9358 35.4116 24.0397 36.3632 25.1771C36.5197 25.3643 36.5675 25.3772 36.7447 25.2248C37.2619 24.782 37.8889 24.64 38.5846 24.6439L38.5833 24.6452Z" stroke="#ED2D2E" stroke-width="0.411429" mask="url(#path-1-outside-1_104_2524)"/>
<path d="M20.8644 65.7381C20.6149 65.447 20.393 65.1325 20.1711 64.8179C19.956 64.5131 19.7409 64.2082 19.5004 63.9242C19.2647 63.6457 19.0551 63.3495 18.8456 63.0533C18.616 62.7288 18.3863 62.4042 18.1221 62.1025C17.7729 61.7034 17.4679 61.2665 17.1629 60.8294C17.007 60.6062 16.8512 60.3829 16.6895 60.1646M20.8644 65.7381L20.7863 65.805M20.8644 65.7381C21.066 65.9733 21.2448 66.2253 21.4234 66.4771C21.6723 66.8279 21.921 67.1785 22.2311 67.4836L21.8264 70.4182C22.5272 69.9288 23.2125 69.4137 23.8784 68.8779C24.5856 68.3086 24.605 67.9794 24.0516 67.2654C23.7439 66.8678 23.7878 66.6289 24.2352 66.3733M20.8644 65.7381L20.7864 65.805C20.7863 65.805 20.7863 65.805 20.7863 65.805M20.7863 65.805C20.537 65.5141 20.3155 65.201 20.0974 64.8919L20.0882 64.8789C19.8723 64.5729 19.6594 64.2711 19.4219 63.9906L19.4219 63.9906C19.1832 63.7086 18.9713 63.4092 18.7624 63.1138C18.7521 63.0993 18.7419 63.0848 18.7316 63.0703C18.5117 62.7596 18.2935 62.4543 18.0447 62.1703L18.0447 62.1702C17.692 61.7671 17.3811 61.3218 17.0739 60.8818C16.9189 60.6597 16.7648 60.4391 16.6068 60.2259M20.7863 65.805C20.9846 66.0364 21.1602 66.2838 21.3388 66.5357C21.3741 66.5854 21.4095 66.6352 21.4452 66.6852C21.6604 66.9862 21.8858 67.2881 22.159 67.5569L22.1591 67.557C22.2528 67.6489 22.2733 67.7189 22.2647 67.7774C22.2548 67.8436 22.2033 67.9286 22.0783 68.0373L22.0782 68.0374C21.9092 68.1845 21.7252 68.3071 21.5347 68.4341C21.4695 68.4775 21.4035 68.5215 21.3371 68.5671C21.0807 68.7433 20.8251 68.9402 20.6214 69.2157L20.6214 69.2158C20.4291 69.4763 20.4001 69.7038 20.4715 69.9123C20.5333 70.0925 20.6686 70.2488 20.7884 70.3872C20.7978 70.3981 20.8071 70.4088 20.8162 70.4194C20.9686 70.5965 21.1556 70.6779 21.3486 70.6817C21.5384 70.6855 21.7255 70.6143 21.8854 70.5024C22.5881 70.0118 23.2752 69.4953 23.9428 68.9581L23.9429 68.9581C24.2971 68.6729 24.5114 68.4247 24.5401 68.1361C24.5686 67.849 24.4092 67.5589 24.1329 67.2024C23.9822 67.0076 23.9421 66.8808 23.9611 66.7864C23.9801 66.6918 24.067 66.5879 24.2862 66.4626L24.2352 66.3733M16.6068 60.2259L16.6895 60.1646M16.6068 60.2259C16.6068 60.2259 16.6068 60.2259 16.6068 60.2259L16.6895 60.1646M16.6068 60.2259C16.4411 60.0024 16.2711 59.7797 16.1006 59.5564C15.8118 59.1782 15.5216 58.7983 15.2489 58.4098M16.6895 60.1646C16.5218 59.9386 16.351 59.7149 16.1802 59.4912C15.8925 59.1145 15.6049 58.7379 15.3331 58.3507M15.3331 58.3507L15.249 58.4099C15.249 58.4098 15.249 58.4098 15.2489 58.4098M15.3331 58.3507C15.1133 58.0383 14.8909 58.0034 14.6065 58.2164L14.6681 58.2988C14.8 58.2 14.8977 58.1738 14.976 58.1878C15.0556 58.202 15.1456 58.2629 15.2489 58.4098M15.3331 58.3507L15.2489 58.4098M24.2352 66.3733C24.702 66.1073 25.2334 66.1616 25.6924 66.2803C25.727 66.2892 25.7616 66.2982 25.7963 66.3071C26.9703 66.6094 28.1407 66.9107 29.3476 67.055C29.4304 67.064 29.5157 67.0976 29.5881 67.1389C30.0942 67.4264 30.6585 67.5083 31.2185 67.5895C31.4682 67.6257 31.717 67.6618 31.9594 67.716L31.937 67.8164M24.2352 66.3733L24.2861 66.4627C24.7172 66.2171 25.2151 66.2631 25.6666 66.3799L25.6668 66.3799C25.7022 66.3891 25.7377 66.3982 25.7731 66.4073C26.9453 66.7092 28.1215 67.0121 29.3354 67.1571L29.3364 67.1572C29.401 67.1643 29.4727 67.1915 29.5371 67.2282L29.5373 67.2283C29.9184 67.4448 30.3283 67.5477 30.7357 67.6188C30.8968 67.6469 31.0547 67.6698 31.2105 67.6924C31.4564 67.728 31.6971 67.7628 31.937 67.8164M31.937 67.8164C32.2132 67.8781 32.4819 67.9599 32.7554 68.0431C32.9204 68.0933 33.0872 68.1441 33.2585 68.1913C33.7067 68.3149 34.1707 68.409 34.66 68.3803L34.6539 68.2776M31.937 67.8164L34.6539 68.2776M34.6539 68.2776L34.6595 68.3803C34.6588 68.3803 34.6644 68.3801 34.6884 68.3897C34.6913 68.3909 34.6949 68.3924 34.699 68.3941C34.7182 68.4021 34.7486 68.4148 34.7777 68.4216M34.7777 68.4216C34.7775 68.4215 34.7773 68.4215 34.7771 68.4214L34.8013 68.3215L34.7782 68.4217C34.7781 68.4217 34.7779 68.4216 34.7777 68.4216ZM14.7077 56.0025C14.7077 56.0025 14.7077 56.0025 14.7076 56.0025L14.7616 56.0901L14.7077 56.0025Z" fill="#ED2D2E" stroke="#ED2D2E" stroke-width="0.205714"/>
<path d="M46.0518 36.6374L45.9976 36.8539C45.9532 37.0308 45.9263 37.218 45.8974 37.4185C45.8801 37.5387 45.8621 37.6638 45.8392 37.7943C45.7797 38.1341 45.6892 38.4921 45.4914 38.8303C45.2817 39.1889 45.3006 39.5887 45.4875 39.9499C45.6589 40.2799 45.8464 40.6016 46.0351 40.9256C46.0896 41.0192 46.1442 41.1129 46.1986 41.2071C46.4404 41.626 46.6763 42.0518 46.8689 42.4985L46.8689 42.4985C47.1176 43.0756 47.4123 43.6292 47.7093 44.187L47.7192 44.2056C48.0189 44.7684 48.3203 45.3358 48.5732 45.9292M46.0518 36.6374L48.4785 45.9695M46.0518 36.6374L45.9922 36.667M46.0518 36.6374L45.9922 36.667M48.5732 45.9292L48.4785 45.9695M48.5732 45.9292C48.5732 45.9292 48.5732 45.9292 48.5732 45.9292L48.4785 45.9695M48.5732 45.9292C48.6506 46.1108 48.7446 46.2801 48.8415 46.4547C48.893 46.5474 48.9454 46.6416 48.9965 46.74C49.1406 47.0173 49.267 47.3147 49.2986 47.6579L49.2986 47.6579C49.3584 48.3107 49.2343 48.9727 48.8789 49.4903M48.4785 45.9695C48.5579 46.1557 48.6565 46.3334 48.7552 46.5113C48.9556 46.8724 49.1563 47.2339 49.1961 47.6673C49.2543 48.3025 49.1328 48.939 48.794 49.4321M48.8789 49.4903L48.794 49.4321M48.8789 49.4903C48.7087 49.7386 48.4569 49.954 48.1771 50.0953C47.8977 50.2363 47.5823 50.3072 47.2863 50.2538C46.4365 50.1004 45.5678 49.8626 44.7855 49.3884M48.8789 49.4903C48.8788 49.4903 48.8788 49.4903 48.8788 49.4904L48.794 49.4321M48.794 49.4321C48.4747 49.8982 47.8411 50.2494 47.3045 50.1525C46.4602 50.0002 45.6056 49.7652 44.8388 49.3005M45.9922 36.667C45.9078 34.8588 45.1911 33.4765 43.8257 32.43L45.9922 36.667ZM45.4599 43.7172C45.2485 43.3335 45.0557 42.941 44.8643 42.5511C44.8425 42.5067 44.8207 42.4624 44.7989 42.4181C44.5852 41.9836 44.3704 41.5534 44.128 41.1373L44.128 41.1372C43.8069 40.5856 43.5091 39.9982 43.3196 39.3859L43.3196 39.3858C43.2612 39.1968 43.3323 39.0113 43.4197 38.8536C43.4643 38.773 43.517 38.6933 43.5671 38.6179L43.5741 38.6074C43.6225 38.5347 43.668 38.4662 43.7061 38.3995C44.1676 37.5905 44.3769 36.7923 44.0912 35.8332L47.0058 46.4808L46.9156 46.5301C46.6671 46.075 46.4345 45.6122 46.2031 45.1516L46.1865 45.1184C45.9493 44.6464 45.7129 44.1768 45.4599 43.7172ZM45.4599 43.7172C45.4599 43.7172 45.4599 43.7172 45.4599 43.7172L45.55 43.6676L45.4599 43.7172ZM38.8855 31.957C39.1458 31.8493 39.3824 31.8284 39.5871 31.9021C39.7923 31.9761 39.947 32.1386 40.0565 32.3602L40.0566 32.3602C40.1625 32.5746 40.188 32.7932 40.1169 32.9976C40.0463 33.2006 39.8857 33.3745 39.6489 33.512C38.9098 33.942 38.273 34.4061 37.9105 35.2084L37.9104 35.2084C37.6536 35.776 37.6158 36.3514 37.6274 36.9521L37.5995 32.8731C36.7423 33.5677 36.1772 34.4779 35.9768 35.4965C35.5941 37.4421 36.1035 39.1851 37.69 40.4916C37.7258 40.5211 37.7618 40.551 37.7981 40.5811C38.3266 41.0199 38.9083 41.5028 39.592 41.4702C40.585 41.4237 40.9845 42.0267 41.2651 42.7238C41.4875 43.2751 41.7499 43.6895 42.2904 43.9426C42.5167 44.0485 42.602 44.2589 42.5619 44.5468C42.4662 45.2388 42.5826 45.4544 43.2407 45.7449C43.5562 45.8843 43.6739 46.0754 43.5834 46.3775C43.414 46.9365 43.6506 47.3677 44.1199 47.5459M38.8855 31.957C38.8855 31.957 38.8855 31.9569 38.8855 31.9569L38.9248 32.052L38.8855 31.957ZM38.8855 31.957C38.3923 32.1608 37.9532 32.4538 37.5348 32.7932C36.6602 33.5018 36.0813 34.4327 35.8759 35.4767L35.8759 35.4767C35.4867 37.4553 36.0059 39.2379 37.6246 40.571C37.6599 40.6001 37.6957 40.6298 37.7319 40.6598C37.9774 40.8638 38.2414 41.083 38.5225 41.2542C38.8464 41.4514 39.2032 41.5917 39.5968 41.573C40.0691 41.5509 40.39 41.6825 40.6271 41.8948C40.8681 42.1107 41.031 42.4177 41.1697 42.7622L41.1697 42.7623C41.3962 43.3239 41.6721 43.7667 42.2468 44.0357L42.2468 44.0358C42.3391 44.0789 42.398 44.1405 42.4318 44.2177C42.4666 44.297 42.4784 44.4011 42.46 44.5326L42.46 44.5327C42.412 44.8799 42.4114 45.1378 42.529 45.3468C42.6464 45.5555 42.869 45.6933 43.1991 45.839C43.3475 45.9045 43.4325 45.9753 43.4745 46.0504C43.5145 46.122 43.5247 46.2147 43.4849 46.3478C43.3941 46.6474 43.4097 46.9222 43.5195 47.1493C43.6293 47.3764 43.828 47.5451 44.0834 47.6421L44.1199 47.5459M44.1199 47.5459C44.5764 47.7202 44.5492 47.9823 44.5052 48.3296L44.5031 48.3467C44.4573 48.7142 44.4161 49.0449 44.8388 49.3005M44.1199 47.5459L44.0832 47.642C44.2941 47.7225 44.3714 47.814 44.4029 47.9062C44.4385 48.0101 44.426 48.1369 44.4032 48.3167L44.4032 48.3169C44.4022 48.3248 44.4012 48.3328 44.4002 48.3408C44.3783 48.5159 44.3548 48.7038 44.3931 48.88C44.4353 49.0738 44.5493 49.2456 44.7855 49.3884M44.8388 49.3005L44.7855 49.3884M44.8388 49.3005L44.7856 49.3885C44.7856 49.3885 44.7855 49.3884 44.7855 49.3884M43.745 42.8749C43.4127 42.7961 43.1761 42.6012 42.9408 42.3753C42.6232 42.072 42.4666 41.6772 42.3133 41.291C42.2949 41.2447 42.2766 41.1985 42.2581 41.1526M43.745 42.8749L42.2581 41.1526M43.745 42.8749C44.1587 42.973 44.5518 43.6121 44.3928 43.9891L43.745 42.8749ZM42.2581 41.1526L42.3535 41.1143C42.3535 41.1142 42.3535 41.1142 42.3534 41.1141L42.2581 41.1526ZM39.9643 32.4058C40.157 32.7956 40.0419 33.1649 39.5971 33.4231C38.8537 33.8556 38.193 34.3333 37.8167 35.166C37.5504 35.7547 37.5129 36.3486 37.5245 36.9541L39.9643 32.4058ZM39.2584 39.6886L39.3093 39.5992C39.3093 39.5992 39.3093 39.5992 39.3093 39.5992L39.2584 39.6886ZM44.7729 44.7921L44.811 44.6966C44.811 44.6965 44.8109 44.6965 44.8108 44.6965L44.7729 44.7921ZM45.4025 45.8804L45.3017 45.8598L45.4025 45.8805C45.4025 45.8805 45.4025 45.8804 45.4025 45.8804ZM45.5965 46.4821L45.6409 46.3893C45.6408 46.3893 45.6407 46.3892 45.6406 46.3892L45.5965 46.4821ZM46.9405 48.3154L46.914 48.4148L46.9408 48.3155C46.9407 48.3155 46.9406 48.3154 46.9405 48.3154ZM47.5618 47.7835L47.4633 47.8131C47.4633 47.8132 47.4634 47.8132 47.4634 47.8132L47.5618 47.7835ZM44.2169 41.0855C43.8976 40.5368 43.604 39.9571 43.4179 39.3555C43.3488 39.132 43.5069 38.8942 43.6604 38.6633C43.7082 38.5915 43.7555 38.5203 43.7954 38.4505C44.266 37.6255 44.4859 36.7979 44.1898 35.8038L44.2169 41.0855Z" fill="#ED2D2E" stroke="#ED2D2E" stroke-width="0.205714"/>
<path d="M40.243 43.9871C40.1082 44.5215 40.0439 45.1 39.9864 45.7041C39.9787 45.7847 39.9711 45.8658 39.9635 45.9472C39.9054 46.5712 39.8451 47.2175 39.7123 47.8535L39.7123 47.8537L40.243 43.9871ZM40.243 43.9871L40.2966 44.0941L40.3194 43.7111C40.3428 43.3188 40.2769 43.0052 40.1261 42.7838C39.9724 42.5583 39.7392 42.4409 39.4598 42.4287L40.243 43.9871ZM38.9964 52.833L38.9963 52.8331C38.846 53.0579 38.6639 53.2492 38.477 53.4277C38.3993 53.5019 38.3226 53.5723 38.2467 53.6419C38.1358 53.7437 38.0268 53.8437 37.9195 53.9511L37.8467 53.8785L37.9195 53.9511C37.798 54.0729 37.5911 54.1357 37.3692 54.1613C37.1418 54.1874 36.8768 54.1769 36.6168 54.133C36.357 54.0892 36.0971 54.0112 35.8814 53.8991C35.6677 53.788 35.4852 53.6368 35.4004 53.4403M38.9964 52.833L35.0624 43.2597C35.0544 43.4213 35.0519 43.5857 35.0495 43.748C35.0482 43.836 35.0469 43.9233 35.0447 44.0092C35.0384 44.2566 35.025 44.4987 34.9848 44.7348M38.9964 52.833C39.0153 52.8046 39.036 52.7769 39.0584 52.7467C39.0622 52.7416 39.066 52.7365 39.0698 52.7313C39.0959 52.6961 39.124 52.6576 39.1489 52.6169C39.1991 52.5347 39.2414 52.4359 39.2346 52.316C39.203 51.7237 39.299 51.1431 39.4023 50.5509C39.4065 50.5271 39.4106 50.5032 39.4148 50.4794C39.5137 49.9136 39.6146 49.3362 39.602 48.7456L38.9964 52.833ZM35.4004 53.4403C35.4004 53.4403 35.4004 53.4402 35.4004 53.4402L35.4948 53.3995L35.4004 53.4404C35.4004 53.4403 35.4004 53.4403 35.4004 53.4403ZM35.4004 53.4403C35.296 53.1993 35.1446 52.9898 34.9795 52.7782C34.9497 52.7401 34.9194 52.7018 34.8889 52.6632C34.7522 52.4903 34.6107 52.3115 34.4927 52.1165L34.4927 52.1165C34.3193 51.8299 34.2228 51.5663 34.2387 51.3068C34.2548 51.0446 34.3844 50.8061 34.6216 50.5679C34.7183 50.4707 34.783 50.3704 34.8052 50.272C34.8264 50.1785 34.8117 50.0766 34.7292 49.9641L34.7291 49.9641C34.5216 49.6805 34.4337 49.4 34.4688 49.1261C34.5037 48.8536 34.6581 48.6059 34.8985 48.3821L34.8987 48.3818C34.9989 48.2892 35.0291 48.2128 35.0313 48.1443C35.0336 48.0696 35.0037 47.9841 34.9418 47.8718C34.7615 47.5446 34.66 47.2852 34.6953 47.043C34.7313 46.7963 34.904 46.597 35.1841 46.3755L35.1841 46.3755C35.2944 46.2883 35.3232 46.2351 35.3282 46.1995C35.3331 46.1642 35.3195 46.1136 35.2516 46.017L35.2516 46.0169C34.9782 45.6267 34.9033 45.2138 34.9848 44.7348M34.9848 44.7348L35.0862 44.752L34.9848 44.7348C34.9848 44.7348 34.9848 44.7348 34.9848 44.7348ZM34.8083 42.8221L34.8082 42.8221C33.9638 42.1163 33.4498 41.1704 33.187 40.1717C32.9497 39.2739 32.8839 38.2793 33.3562 37.3441C33.4203 37.217 33.4775 37.0865 33.5352 36.9533C33.5397 36.9429 33.5443 36.9324 33.5488 36.922C33.6017 36.7996 33.6557 36.675 33.715 36.5528C33.8441 36.2867 34.0017 36.0253 34.2442 35.7995L34.8083 42.8221ZM34.8083 42.8221C34.9558 42.9453 35.0714 43.0765 35.0624 43.2596L34.8083 42.8221ZM35.5845 36.8962L35.5844 36.8963C35.0078 37.6528 34.8869 38.4974 34.9253 39.4403L35.5845 36.8962ZM35.5845 36.8962C35.7406 36.6908 35.7943 36.4666 35.7433 36.2488C35.6931 36.0339 35.5446 35.8404 35.3259 35.684L35.5845 36.8962ZM36.189 41.6364L36.1891 41.6364C36.4581 41.8607 36.686 42.0927 36.8206 42.3681C36.9572 42.6477 36.9937 42.9634 36.8965 43.3456L36.8965 43.3458C36.8575 43.4981 36.8486 43.6603 36.8398 43.8349L36.8393 43.8444C36.8308 44.0125 36.8218 44.1922 36.779 44.3649L36.7789 44.3653C36.6536 44.8622 36.8117 45.2591 37.112 45.6614L37.1121 45.6615C37.2735 45.8782 37.3437 46.113 37.3249 46.3495C37.3062 46.5847 37.2002 46.8123 37.0253 47.0185L37.0252 47.0185C36.927 47.1343 36.8586 47.2373 36.832 47.3464C36.8065 47.4508 36.8165 47.5731 36.9019 47.7338L36.9019 47.7339C37.08 48.069 37.1775 48.3122 37.1318 48.5466C37.0867 48.7784 36.9057 48.9759 36.6267 49.2373L36.6266 49.2373C36.5302 49.3276 36.5105 49.3996 36.5139 49.4603C36.5179 49.5305 36.5532 49.6059 36.609 49.7017C36.7084 49.871 36.7865 50.0086 36.8378 50.1273C36.8895 50.2472 36.9178 50.3562 36.9101 50.4677C36.9024 50.5797 36.8591 50.682 36.7901 50.7902C36.722 50.897 36.6242 51.0163 36.5001 51.1617M36.189 41.6364L36.4219 51.095M36.189 41.6364C35.4999 41.063 34.9649 40.4033 34.9253 39.4403L36.189 41.6364ZM36.5001 51.1617L36.4219 51.095M36.5001 51.1617C36.5001 51.1617 36.5001 51.1617 36.5002 51.1617L36.4219 51.095M36.5001 51.1617C36.4461 51.2251 36.4134 51.323 36.4079 51.4457C36.4025 51.5672 36.4244 51.7036 36.4688 51.8323C36.5134 51.9612 36.5787 52.077 36.6554 52.16C36.7324 52.2433 36.8142 52.287 36.8938 52.291M36.4219 51.095C36.1258 51.4422 36.4283 52.3705 36.8886 52.3938M36.8938 52.291C36.8938 52.291 36.8937 52.291 36.8937 52.291L36.8886 52.3938M36.8938 52.291L36.8886 52.3938M36.8938 52.291L36.8886 52.3938M34.7761 35.5137C34.964 35.4914 35.1448 35.5541 35.3258 35.6839L34.7761 35.5137ZM34.7761 35.5137C34.5907 35.5358 34.417 35.6384 34.2443 35.7995L34.7761 35.5137ZM38.7892 42.6441C38.9462 42.4708 39.1733 42.4158 39.4597 42.4286L38.7892 42.6441ZM38.7892 42.6441C38.6375 42.8115 38.5713 43.0691 38.5483 43.4087L38.7892 42.6441ZM37.4158 51.7766C37.4158 51.7767 37.4158 51.7767 37.4157 51.7768L37.517 51.7947L37.4158 51.7766Z" fill="#ED2D2E" stroke="#ED2D2E" stroke-width="0.205714"/>
</g>
<defs>
<clipPath id="clip0_104_2524">
<rect width="48.1371" height="69.1591" fill="white" transform="translate(11.9316 1.42041)"/>
</clipPath>
</defs>
</svg>
