<svg width="139" height="62" viewBox="0 0 139 62" fill="none" xmlns="http://www.w3.org/2000/svg">
<g clip-path="url(#clip0_104_2466)">
<path fill-rule="evenodd" clip-rule="evenodd" d="M11.0369 12.1286C20.7008 22.3575 30.9466 23.0881 41.4006 11.9338C37.9637 8.05655 33.5707 4.25725 27.9909 0.548875C26.8561 -0.20449 25.3701 -0.178512 24.2581 0.604079C19.2798 4.11112 14.9096 7.90393 11.2971 11.8396C11.2093 11.937 11.1215 12.0312 11.0337 12.1286H11.0369Z" fill="#ED2D2E"/>
<path fill-rule="evenodd" clip-rule="evenodd" d="M47.6241 20.7598C42.0638 30.7452 31.9577 35.0803 17.0913 33.4989C27.1063 44.8415 38.6008 47.9005 52.1146 39.6557C52.3162 37.6456 52.2967 35.5251 52.0625 33.2943C51.2366 29.0631 49.8482 24.8774 47.6241 20.7566V20.7598Z" fill="#00A5D9"/>
<path fill-rule="evenodd" clip-rule="evenodd" d="M52.1145 39.6589C38.604 47.9037 27.1095 44.8448 17.0912 33.5021C11.4984 31.2907 12.0642 26.9816 1.69152 26.803C1.2493 28.0077 0.888371 29.2125 0.615234 30.4075C15.6898 36.1616 11.4139 52.872 31.7723 61.3864C32.6145 61.2208 33.4664 61.0227 34.3281 60.7889C45.2698 56.2492 51.1585 49.1864 52.1145 39.6622V39.6589Z" fill="#7ACFE6"/>
<path fill-rule="evenodd" clip-rule="evenodd" d="M31.7724 61.3831C11.414 52.8688 15.6899 36.1616 0.615324 30.4042C0.150341 32.4532 -0.0577629 34.4795 0.0137729 36.4636C0.920977 53.5442 14.2364 64.8187 31.7724 61.3831Z" fill="#00A5D9"/>
<path fill-rule="evenodd" clip-rule="evenodd" d="M17.0916 33.5021C31.958 35.0835 42.0608 30.7452 47.6244 20.7631C46.0181 17.7854 43.976 14.8401 41.4007 11.937C30.9468 23.0881 20.6976 22.3608 11.0371 12.1319C6.70915 16.9086 3.50305 21.8834 1.69189 26.8063C12.0678 26.9849 11.4988 31.2972 17.0916 33.5054V33.5021Z" fill="#FCB912"/>
<g clip-path="url(#clip1_104_2466)">
<path d="M67.828 25.9627C63.0033 25.9627 59.2529 22.4745 59.2529 17.6498C59.2529 12.8252 63.0033 9.33694 67.828 9.33694C72.6527 9.33694 76.3231 12.8252 76.3231 17.6498C76.3231 22.4745 72.6271 25.9627 67.828 25.9627ZM67.828 11.882C64.6819 11.882 62.6101 14.2415 62.6101 17.6498C62.6101 21.0581 64.6819 23.4177 67.828 23.4177C70.9741 23.4177 72.9692 21.0581 72.9692 17.6498C72.9692 14.2415 70.9229 11.882 67.828 11.882Z" fill="black"/>
<path d="M90.1961 25.5151L88.5975 21.6336H82.2253L80.6267 25.5151H77.5317L84.2172 9.78137H86.7079L93.3934 25.5151H90.1929H90.1961ZM85.4226 13.6884L83.0886 19.4051H87.731L85.4226 13.6884Z" fill="black"/>
<path d="M101.051 25.8316C98.4292 25.8316 96.5396 24.8085 95.4653 23.8653L96.2007 21.3491C97.2494 22.3466 98.9024 23.472 101.051 23.472C102.624 23.472 103.829 22.6855 103.829 21.2947C103.829 19.9838 103.094 19.3028 100.527 18.6729C97.2238 17.8608 95.9098 16.1023 95.9098 13.8483C95.9098 11.2777 97.956 9.41687 101.339 9.41687C103.279 9.41687 105.009 10.1522 106.058 10.9643L105.377 13.1928C104.274 12.4575 102.701 11.8276 101.313 11.8276C99.7657 11.8276 98.848 12.5086 98.848 13.6373C98.848 14.5549 99.398 15.2615 101.55 15.789C105.22 16.7066 106.793 18.2541 106.793 20.9814C106.793 24.3641 104.015 25.8316 101.051 25.8316Z" fill="black"/>
<path d="M110.492 25.5151V9.78137H113.693V25.5151H110.492Z" fill="black"/>
<path d="M122.843 25.8316C120.222 25.8316 118.332 24.8085 117.258 23.8653L117.993 21.3491C119.042 22.3466 120.695 23.472 122.843 23.472C124.416 23.472 125.622 22.6855 125.622 21.2947C125.622 19.9838 124.886 19.3028 122.319 18.6729C119.016 17.8608 117.702 16.1023 117.702 13.8483C117.702 11.2777 119.748 9.41687 123.131 9.41687C125.072 9.41687 126.802 10.1522 127.85 10.9643L127.169 13.1928C126.066 12.4575 124.493 11.8276 123.106 11.8276C121.558 11.8276 120.641 12.5086 120.641 13.6373C120.641 14.5549 121.19 15.2615 123.342 15.789C127.013 16.7066 128.586 18.2541 128.586 20.9814C128.586 24.3641 125.807 25.8316 122.843 25.8316Z" fill="black"/>
<path d="M63.2109 38.9724V42.7739H68.771V45.239H63.2109V52.2154H60.0137V36.4817H70.0819V38.9724H63.2109Z" fill="black"/>
<path d="M80.4158 52.663C76.2722 52.663 73.1772 50.2779 73.1772 44.9544V36.4849H76.4289V44.8489C76.4289 48.2572 77.8964 49.9102 80.467 49.9102C83.0376 49.9102 84.5051 48.2572 84.5051 44.8489V36.4849H87.6257V44.9544C87.6257 50.2779 84.5563 52.663 80.4158 52.663Z" fill="black"/>
<path d="M103.254 52.2154L95.021 41.8307V52.2154H92.1626V36.4817H94.3911L102.624 46.8664V36.4817H105.482V52.2154H103.254Z" fill="black"/>
<path d="M115.554 52.2154H110.019V36.4817H115.554C121.846 36.4817 124.496 40.0211 124.496 44.347C124.496 48.6729 121.849 52.2123 115.554 52.2123V52.2154ZM115.397 39.0523H113.22V49.6448H115.397C119.697 49.6448 121.219 47.4931 121.219 44.347C121.219 41.2009 119.697 39.0491 115.397 39.0491V39.0523Z" fill="black"/>
<path d="M132.886 52.532C130.264 52.532 128.375 51.5088 127.3 50.5656L128.036 48.0494C129.084 49.0469 130.737 50.1724 132.886 50.1724C134.459 50.1724 135.664 49.3859 135.664 47.995C135.664 46.6842 134.929 46.0032 132.362 45.3733C129.059 44.5612 127.745 42.8027 127.745 40.5486C127.745 37.978 129.791 36.1172 133.174 36.1172C135.114 36.1172 136.844 36.8526 137.893 37.6647L137.212 39.8932C136.109 39.1578 134.536 38.528 133.148 38.528C131.601 38.528 130.683 39.209 130.683 40.3376C130.683 41.2552 131.233 41.9618 133.385 42.4894C137.055 43.407 138.628 44.9545 138.628 47.6817C138.628 51.0644 135.85 52.532 132.886 52.532Z" fill="black"/>
</g>
</g>
<defs>
<clipPath id="clip0_104_2466">
<rect width="138.628" height="61.9998" fill="white"/>
</clipPath>
<clipPath id="clip1_104_2466">
<rect width="79.3752" height="43.3261" fill="white" transform="translate(59.2529 9.33694)"/>
</clipPath>
</defs>
</svg>
