<svg width="139" height="62" viewBox="0 0 139 62" fill="none" xmlns="http://www.w3.org/2000/svg">
<g clip-path="url(#clip0_104_2441)">
<path fill-rule="evenodd" clip-rule="evenodd" d="M11.0369 12.1285C20.7008 22.3574 30.9466 23.088 41.4006 11.9337C37.9637 8.05646 33.5707 4.25716 27.9909 0.548784C26.8561 -0.204581 25.3701 -0.178603 24.2581 0.603987C19.2798 4.11103 14.9096 7.90384 11.2971 11.8395C11.2093 11.9369 11.1215 12.0311 11.0337 12.1285H11.0369Z" fill="#ED2D2E"/>
<path fill-rule="evenodd" clip-rule="evenodd" d="M47.6241 20.7598C42.0638 30.7452 31.9577 35.0803 17.0913 33.4989C27.1063 44.8415 38.6008 47.9005 52.1146 39.6557C52.3162 37.6456 52.2967 35.5251 52.0625 33.2943C51.2366 29.0631 49.8482 24.8774 47.6241 20.7566V20.7598Z" fill="#00A5D9"/>
<path fill-rule="evenodd" clip-rule="evenodd" d="M52.1145 39.6589C38.604 47.9037 27.1095 44.8448 17.0912 33.5021C11.4984 31.2907 12.0642 26.9816 1.69152 26.803C1.2493 28.0077 0.888371 29.2124 0.615234 30.4074C15.6898 36.1616 11.4139 52.872 31.7723 61.3863C32.6145 61.2207 33.4664 61.0226 34.3281 60.7888C45.2698 56.2492 51.1585 49.1864 52.1145 39.6621V39.6589Z" fill="#7ACFE6"/>
<path fill-rule="evenodd" clip-rule="evenodd" d="M31.7724 61.3829C11.414 52.8686 15.6899 36.1615 0.615324 30.4041C0.150341 32.4531 -0.0577629 34.4794 0.0137729 36.4634C0.920977 53.5441 14.2364 64.8186 31.7724 61.3829Z" fill="#00A5D9"/>
<path fill-rule="evenodd" clip-rule="evenodd" d="M17.0916 33.5021C31.958 35.0835 42.0608 30.7452 47.6244 20.7631C46.0181 17.7853 43.976 14.8401 41.4007 11.937C30.9468 23.0881 20.6976 22.3607 11.0371 12.1318C6.70915 16.9086 3.50305 21.8834 1.69189 26.8062C12.0678 26.9848 11.4988 31.2972 17.0916 33.5053V33.5021Z" fill="#FCB912"/>
<g clip-path="url(#clip1_104_2441)">
<path d="M67.828 25.9627C63.0033 25.9627 59.2529 22.4745 59.2529 17.6498C59.2529 12.8251 63.0033 9.33691 67.828 9.33691C72.6527 9.33691 76.3231 12.8251 76.3231 17.6498C76.3231 22.4745 72.6271 25.9627 67.828 25.9627ZM67.828 11.8819C64.6819 11.8819 62.6101 14.2415 62.6101 17.6498C62.6101 21.0581 64.6819 23.4177 67.828 23.4177C70.9741 23.4177 72.9692 21.0581 72.9692 17.6498C72.9692 14.2415 70.9229 11.8819 67.828 11.8819Z" fill="white"/>
<path d="M90.1961 25.515L88.5975 21.6335H82.2253L80.6267 25.515H77.5317L84.2172 9.78125H86.7079L93.3934 25.515H90.1929H90.1961ZM85.4226 13.6883L83.0886 19.405H87.731L85.4226 13.6883Z" fill="white"/>
<path d="M101.051 25.8315C98.4292 25.8315 96.5396 24.8084 95.4653 23.8652L96.2007 21.3489C97.2494 22.3465 98.9024 23.4719 101.051 23.4719C102.624 23.4719 103.829 22.6854 103.829 21.2946C103.829 19.9837 103.094 19.3027 100.527 18.6728C97.2238 17.8607 95.9098 16.1022 95.9098 13.8482C95.9098 11.2776 97.956 9.41675 101.339 9.41675C103.279 9.41675 105.009 10.1521 106.058 10.9642L105.377 13.1927C104.274 12.4573 102.701 11.8275 101.313 11.8275C99.7657 11.8275 98.848 12.5085 98.848 13.6371C98.848 14.5547 99.398 15.2613 101.55 15.7889C105.22 16.7065 106.793 18.254 106.793 20.9812C106.793 24.3639 104.015 25.8315 101.051 25.8315Z" fill="white"/>
<path d="M110.492 25.515V9.78125H113.693V25.515H110.492Z" fill="white"/>
<path d="M122.843 25.8315C120.222 25.8315 118.332 24.8084 117.258 23.8652L117.993 21.3489C119.042 22.3465 120.695 23.4719 122.843 23.4719C124.416 23.4719 125.622 22.6854 125.622 21.2946C125.622 19.9837 124.886 19.3027 122.319 18.6728C119.016 17.8607 117.702 16.1022 117.702 13.8482C117.702 11.2776 119.748 9.41675 123.131 9.41675C125.072 9.41675 126.802 10.1521 127.85 10.9642L127.169 13.1927C126.066 12.4573 124.493 11.8275 123.106 11.8275C121.558 11.8275 120.641 12.5085 120.641 13.6371C120.641 14.5547 121.19 15.2613 123.342 15.7889C127.013 16.7065 128.586 18.254 128.586 20.9812C128.586 24.3639 125.807 25.8315 122.843 25.8315Z" fill="white"/>
<path d="M63.2109 38.9724V42.7739H68.771V45.239H63.2109V52.2154H60.0137V36.4817H70.0819V38.9724H63.2109Z" fill="white"/>
<path d="M80.4158 52.663C76.2722 52.663 73.1772 50.2779 73.1772 44.9544V36.4849H76.4289V44.8489C76.4289 48.2572 77.8964 49.9102 80.467 49.9102C83.0376 49.9102 84.5051 48.2572 84.5051 44.8489V36.4849H87.6257V44.9544C87.6257 50.2779 84.5563 52.663 80.4158 52.663Z" fill="white"/>
<path d="M103.254 52.2154L95.021 41.8307V52.2154H92.1626V36.4817H94.3911L102.624 46.8664V36.4817H105.482V52.2154H103.254Z" fill="white"/>
<path d="M115.554 52.2154H110.019V36.4817H115.554C121.846 36.4817 124.496 40.0211 124.496 44.347C124.496 48.6729 121.849 52.2122 115.554 52.2122V52.2154ZM115.397 39.0523H113.22V49.6448H115.397C119.697 49.6448 121.219 47.4931 121.219 44.347C121.219 41.2008 119.697 39.0491 115.397 39.0491V39.0523Z" fill="white"/>
<path d="M132.886 52.5319C130.264 52.5319 128.375 51.5088 127.3 50.5656L128.036 48.0494C129.084 49.0469 130.737 50.1724 132.886 50.1724C134.459 50.1724 135.664 49.3858 135.664 47.995C135.664 46.6841 134.929 46.0031 132.362 45.3733C129.059 44.5612 127.745 42.8027 127.745 40.5486C127.745 37.978 129.791 36.1172 133.174 36.1172C135.114 36.1172 136.844 36.8526 137.893 37.6647L137.212 39.8932C136.109 39.1578 134.536 38.5279 133.148 38.5279C131.601 38.5279 130.683 39.2089 130.683 40.3376C130.683 41.2552 131.233 41.9618 133.385 42.4893C137.055 43.4069 138.628 44.9544 138.628 47.6817C138.628 51.0644 135.85 52.5319 132.886 52.5319Z" fill="white"/>
</g>
</g>
<defs>
<clipPath id="clip0_104_2441">
<rect width="138.628" height="61.9998" fill="white"/>
</clipPath>
<clipPath id="clip1_104_2441">
<rect width="79.3752" height="43.3261" fill="white" transform="translate(59.2529 9.33691)"/>
</clipPath>
</defs>
</svg>
