<svg width="72" height="72" viewBox="0 0 72 72" fill="none" xmlns="http://www.w3.org/2000/svg">
<g clip-path="url(#clip0_104_2534)">
<path d="M37.8809 56.8272C36.6287 56.9636 35.5997 56.0172 34.5169 55.1947C34.4755 55.1658 34.4383 55.1286 34.4011 55.0956C33.9879 54.7608 33.6159 54.2359 33.1572 54.1367C32.6241 54.0252 32.405 54.7567 32 55.0708C30.9627 55.8643 29.9088 56.5751 28.5243 56.1411C27.5779 55.8477 26.8423 55.2361 26.2885 54.4178C26.0943 54.1285 25.8959 53.9425 25.4909 53.9714C23.8625 54.0913 22.7715 53.1945 21.8953 51.9629C21.6226 51.5786 21.449 51.3719 20.8911 51.5786C19.9571 51.9216 19.1016 51.5083 18.3535 50.938C18.0932 50.7437 17.8287 50.4916 17.7006 50.2023C17.0352 48.7393 15.659 48.0864 14.4646 47.1978C13.2578 46.2969 12.4354 45.1108 12.3775 43.5072C12.3569 42.9617 12.6296 42.5278 12.8074 42.0649C13.0512 41.4119 12.4189 41.4367 12.1833 41.2259C11.9023 40.9738 11.7866 41.3706 11.675 41.5772C11.5551 41.8004 11.4559 42.0318 11.3444 42.255C10.9311 43.0898 10.2822 43.313 9.46394 42.8956C6.59165 41.4243 3.7235 39.9489 0.855352 38.4694C-0.0414617 38.0065 -0.215039 37.3866 0.251966 36.465C2.29356 32.4024 4.35995 28.3523 6.41808 24.2981C7.82322 21.5332 9.21184 18.7601 10.6087 15.9912C11.0551 15.1068 11.6295 14.9621 12.5387 15.425C15.163 16.7557 17.7874 18.0782 20.4199 19.3842C21.2258 19.7851 21.9201 20.5042 21.2672 21.5456C21.201 21.6531 21.1804 21.7853 21.1308 21.901C20.9737 22.2647 20.5357 22.7689 20.7134 22.9549C21.1473 23.4095 21.7548 23.7112 22.3334 24.0046C22.5566 24.1162 22.7756 23.8228 22.9823 23.7029C24.747 22.6821 26.4497 21.5456 28.297 20.6653C29.7435 19.9752 31.2106 19.9834 32.5827 20.8348C32.9919 21.0869 33.2109 21.0497 33.5829 20.8307C35.0996 19.938 36.6535 19.1362 38.505 19.3718C39.6994 19.5247 40.7243 20.157 41.8278 20.5662C43.8569 21.3225 45.8531 22.1738 47.8616 22.988C48.0393 23.0624 48.2088 23.0624 48.3823 23.0004C49.4693 22.616 50.5521 22.2069 51.6472 21.8473C51.9489 21.7481 52.0109 21.6737 51.8745 21.3803C51.7051 21.0166 51.6059 20.6199 51.4571 20.2438C51.1802 19.5454 51.5067 18.8717 52.2217 18.6114C55.2345 17.5244 58.2432 16.4334 61.2477 15.3217C62.2892 14.9373 62.9297 15.2307 63.343 16.2681C64.2688 18.6155 65.2524 20.9381 66.1781 23.2814C67.1948 25.8603 68.1618 28.4639 69.1785 31.0428C70.0423 33.2373 70.9473 35.4111 71.8235 37.6015C72.2202 38.5975 71.9557 39.1554 70.9639 39.5604C70.0795 39.92 69.162 40.1845 68.2817 40.5606C66.5211 41.3086 64.7068 41.9202 62.9339 42.6393C60.479 43.6312 60.6443 42.8914 59.9335 41.2962C59.6648 40.6969 59.5037 40.5812 58.9995 40.9449C58.9209 41.0028 58.8135 41.0193 58.7184 41.0482C58.0241 41.2425 57.9125 41.5524 58.0778 42.3377C58.5531 44.5942 56.9289 46.9002 54.1228 47.1854C53.5277 47.2474 53.2756 47.4788 53.0028 47.9789C51.9737 49.8676 50.271 50.6983 48.1881 50.7809C47.6963 50.8016 47.4318 50.9256 47.1549 51.3471C46.254 52.7192 44.8777 53.3763 43.3032 53.6325C42.9684 53.6863 42.8114 53.7772 42.6419 54.1037C41.7203 55.9262 40.1912 56.7941 37.8975 56.8107L37.8809 56.8272ZM30.6816 22.6243C30.0163 22.5044 29.5534 22.6987 29.107 22.926C27.3258 23.8269 25.6148 24.856 23.9576 25.9594C22.9451 26.6331 22.0441 26.8025 21.0357 26.0628C20.7506 25.852 20.4117 25.7197 20.1224 25.5131C19.6678 25.1949 19.4281 25.3065 19.2008 25.8024C18.3164 27.7241 17.3947 29.6335 16.4855 31.5428C15.3862 33.8489 14.2869 36.1509 13.1793 38.4528C13.1132 38.5892 12.952 38.7297 13.0967 38.8537C13.4025 39.1182 13.7166 39.3992 14.0803 39.5604C14.3778 39.6927 14.539 39.3125 14.7456 39.1471C16.6219 37.6676 19.8538 38.5479 20.4695 40.7548C20.6224 41.3086 20.6762 41.3788 21.1597 41.0441C22.9864 39.796 25.7306 40.5895 26.3877 42.4988C26.4869 42.7923 26.6976 42.9493 27.0696 42.9906C28.7516 43.1766 30.0659 43.9536 30.4874 45.6893C30.723 46.6688 31.0908 47.3094 32.1818 47.3011C32.2686 47.3011 32.3513 47.4044 32.4381 47.454C33.9259 48.3261 34.4342 49.6733 34.2317 51.3141C34.178 51.7397 34.2813 51.9753 34.583 52.2109C35.298 52.7647 35.9964 53.3391 36.7196 53.8805C37.6991 54.612 38.8232 54.674 39.7696 53.959C40.0672 53.7317 40.7491 53.4052 40.1953 52.8349C39.1373 51.7356 38.0173 50.6941 36.9387 49.6155C35.5501 48.2269 35.703 48.7848 36.9469 47.3631C37.4181 46.83 37.7528 46.987 38.1578 47.4044C39.2489 48.5327 40.3565 49.6403 41.4475 50.7685C41.7038 51.033 41.9765 51.2149 42.3567 51.2603C43.3693 51.3843 44.1834 51.0413 44.9108 50.347C45.3241 49.9544 45.3034 49.6981 44.8901 49.3055C43.175 47.6689 41.4889 45.9993 39.7944 44.3379C39.2117 43.7635 39.1869 43.1353 39.7076 42.598C40.2284 42.0649 40.902 42.1145 41.5054 42.6972C43.1957 44.3379 44.9563 45.9042 46.5722 47.6152C48.0765 49.2105 49.866 48.231 50.8414 47.0036C51.0232 46.7721 51.0397 46.5862 50.7752 46.3589C50.0272 45.7183 49.2916 45.0612 48.5807 44.3751C47.1384 42.9865 45.7043 41.5938 44.295 40.1679C43.795 39.6637 43.8322 39.0562 44.2661 38.6016C44.762 38.0892 45.2952 38.0602 45.8737 38.5231C46.0886 38.6967 46.2994 38.8744 46.5019 39.0686C48.2749 40.7548 50.0396 42.4492 51.8167 44.1313C52.4779 44.7553 53.288 44.9413 54.1558 44.7553C55.656 44.4371 56.247 42.9534 55.313 41.8954C54.9287 41.4615 54.5237 41.0482 54.1145 40.6391C52.606 39.143 51.1182 37.6221 49.5685 36.1757C48.9072 35.5599 48.3906 34.7292 47.5145 34.3903C43.9148 32.981 40.3854 31.4188 36.9924 29.5591C36.8436 29.4764 36.7444 29.3111 36.5295 29.4434C35.9427 29.8029 35.4343 30.1501 35.1781 30.8898C34.5995 32.5636 32.9629 34.3077 30.7932 34.0845C29.1525 33.915 27.7226 32.7165 27.3837 31.1089C26.9001 28.7987 27.8713 26.8273 28.8012 24.856C29.2062 23.9964 29.9501 23.3599 30.6858 22.616L30.6816 22.6243ZM29.6732 30.3113C29.6071 30.7617 29.727 31.3445 30.4874 31.5924C31.2396 31.8363 31.8801 31.7205 32.3926 31.0676C32.6654 30.7204 32.8514 30.3526 32.9795 29.9269C33.1489 29.3607 33.215 28.7325 33.8184 28.373C34.5334 27.9473 35.2029 27.4472 35.9137 27.0133C36.327 26.7612 36.823 26.7695 37.2362 26.972C38.6579 27.6745 40.0424 28.4515 41.4599 29.1582C43.4189 30.1377 45.3695 31.1337 47.4607 31.828C48.184 32.0677 48.9527 32.2247 49.5478 32.8323C51.329 34.6424 53.1681 36.3906 54.9659 38.1842C56.2057 39.4199 56.1933 39.4323 57.9001 38.7463C58.0159 38.7008 58.144 38.6801 58.268 38.6429C58.6275 38.5355 58.7928 38.4198 58.5903 37.961C58.0365 36.7171 57.5778 35.4318 57.0653 34.1713C55.7511 30.9436 54.4162 27.7283 53.1268 24.4923C52.9491 24.0418 52.7011 24.0377 52.3663 24.141C51.453 24.4303 50.5521 24.7733 49.6346 25.042C48.9692 25.2362 48.3245 25.7156 47.5889 25.4263C45.134 24.4634 42.675 23.5046 40.2449 22.4838C38.8893 21.9134 37.5669 21.3597 36.1245 22.149C35.3062 22.5995 34.5045 23.0789 33.6944 23.5418C31.1693 24.9841 29.8055 27.1414 29.6774 30.3071L29.6732 30.3113ZM69.1454 37.432C69.1 37.2874 69.0669 37.1386 69.0132 36.9981C68.5173 35.7376 68.0255 34.473 67.5213 33.2125C66.3393 30.2699 65.1532 27.3274 63.9712 24.3848C63.1694 22.3928 62.3387 20.4091 61.5907 18.3964C61.3758 17.822 61.0658 17.9377 60.7146 18.0658C58.7308 18.7849 56.7678 19.5578 54.7716 20.2314C54.2385 20.4132 54.1434 20.5992 54.3335 21.0704C55.5403 24.079 56.7016 27.1084 57.9456 30.1005C59.2888 33.3241 60.5947 36.56 61.8635 39.8167C61.9792 40.1142 62.0536 40.3167 62.5082 40.1638C64.62 39.4654 66.6492 38.5644 68.7446 37.8247C68.9264 37.7627 69.1537 37.7007 69.1413 37.4279L69.1454 37.432ZM18.6139 21.3927C18.6222 21.1241 18.3949 21.1076 18.2172 21.0166C16.4029 20.0992 14.5762 19.2023 12.7867 18.2353C12.3693 18.008 12.2081 18.1072 12.0428 18.4378C10.8856 20.7067 9.7243 22.9756 8.57952 25.2527C6.89335 28.5962 5.21544 31.9437 3.53339 35.2913C3.29783 35.7624 2.79776 36.2749 2.88041 36.6799C2.9672 37.118 3.7235 37.2089 4.18637 37.4568C5.69071 38.271 7.2033 39.0728 8.72004 39.8621C9.48047 40.2589 9.64578 40.1845 10.0384 39.3868C10.6748 38.0974 11.3237 36.8121 11.9477 35.5144C13.9728 31.3031 15.9937 27.0918 18.0064 22.8764C18.2337 22.397 18.4155 21.8969 18.6222 21.3968L18.6139 21.3927ZM26.7307 45.3794C26.2926 45.2885 25.9413 45.553 25.7512 45.958C25.2181 47.078 24.4949 48.0781 23.8791 49.1485C23.3005 50.161 23.9741 51.4091 25.1272 51.5083C25.495 51.5372 25.7843 51.4256 25.9661 51.1074C26.6646 49.9048 27.363 48.7021 28.0449 47.4871C28.6607 46.3878 28.0656 45.4 26.7307 45.3794ZM24.1518 43.656C24.1312 43.2634 24.0031 43.0113 23.6311 42.9576C22.9203 42.8584 22.3004 42.9328 21.8251 43.5982C20.9779 44.7884 20.1017 45.958 19.3702 47.2309C18.9983 47.8756 19.1842 48.6567 19.8909 49.0989C20.5357 49.4998 20.9696 49.0906 21.3374 48.5906C22.3169 47.2391 23.1352 45.7885 23.9493 44.3338C24.0692 44.1189 24.094 43.8503 24.1477 43.6519L24.1518 43.656ZM16.936 40.7879C16.6343 40.9242 16.2624 40.9201 16.002 41.2962C15.597 41.8872 15.3242 42.536 14.9895 43.1601C14.787 43.5403 14.8242 43.8957 15.0143 44.2387C15.3614 44.871 15.8615 45.367 16.4814 45.7348C16.7624 45.9001 16.9443 45.8712 17.0476 45.5282C17.3823 44.3916 17.7584 43.2634 18.0643 42.1186C18.2998 41.2425 17.8783 40.7713 16.936 40.7879ZM31.843 50.6363C31.9256 49.9378 31.4669 49.6362 30.8428 49.384C30.165 49.1072 30.0411 49.6981 29.8014 49.9998C29.2352 50.7065 28.8054 51.5207 28.2268 52.215C27.7722 52.7605 28.2764 53.0085 28.4747 53.3102C28.702 53.6532 29.0451 54.0128 29.5369 53.8516C30.6073 53.5044 31.843 51.7893 31.8388 50.6404L31.843 50.6363Z" fill="#ED2D2E"/>
</g>
<defs>
<clipPath id="clip0_104_2534">
<rect width="72" height="72" fill="white"/>
</clipPath>
</defs>
</svg>
