<svg width="72" height="72" viewBox="0 0 72 72" fill="none" xmlns="http://www.w3.org/2000/svg">
<g clip-path="url(#clip0_104_2511)">
<path d="M35.2326 15.6692C36.3846 15.0109 37.5119 14.4596 38.8203 14.4637C39.5855 14.4637 40.2808 14.7188 40.9803 15.015C41.7949 15.3606 42.4532 15.9366 42.9551 16.5825C43.852 17.7387 44.3046 19.1087 43.9426 20.6063C43.6216 21.9393 42.951 23.0872 42.1035 24.1816C41.2271 25.3131 40.4125 26.5021 39.7336 27.8104C39.9805 27.9215 40.2438 27.9133 40.4989 27.9215C42.0747 27.9544 43.564 28.3741 45.0328 28.9089C46.4235 29.415 47.4027 30.4107 48.0527 31.6491C48.5629 32.62 48.8303 33.7432 48.7357 34.8829C48.7069 35.2079 48.781 35.2779 49.1101 35.2614C51.2413 35.1627 53.0146 35.9526 54.3188 37.623C55.0964 38.6228 55.5284 39.8036 55.7012 41.0996C55.9151 42.7041 56.018 44.3005 55.9439 45.9092C55.8328 48.2913 55.4091 50.6036 54.5286 52.8376C54.1748 53.7345 53.7304 54.5615 53.282 55.4008C52.0971 57.6061 50.4308 59.3629 48.4066 60.8029C47.4603 61.4776 46.4564 62.0783 45.3661 62.4527C43.1938 63.2015 40.9762 63.7323 38.631 63.5389C37.4255 63.4401 36.2283 63.3208 35.0392 63.111C34.5496 63.0246 34.0765 62.86 33.5869 62.7489C32.6077 62.5309 31.6861 62.1647 30.7768 61.7409C29.2381 61.0251 27.8516 60.0993 26.5885 58.9556C25.6834 58.1368 24.8811 57.2317 24.1981 56.2566C23.618 55.4255 23.0379 54.5615 22.6511 53.5947C22.3384 52.8171 21.9188 52.0847 21.6308 51.2989C21.4621 50.8381 21.3387 50.3485 21.1864 49.8753C20.5693 47.9787 20.0386 46.0614 19.4996 44.14C19.0223 42.4449 18.7343 40.7087 18.2612 39.0177C17.8621 37.5983 17.7099 36.1419 17.4013 34.7101C17.138 33.5046 16.8994 32.295 16.706 31.0772C16.6278 30.5876 16.5373 30.098 16.5044 29.5919C16.4386 28.5675 16.2575 27.5471 16.1835 26.5227C16.0518 24.6918 15.8543 22.8692 16.4509 21.0465C16.9199 19.6107 17.8045 18.5533 19.084 17.9197C20.2566 17.3355 21.5773 17.1585 22.9062 17.4095C22.9474 17.4177 22.9885 17.4383 23.0338 17.4465C23.4082 17.5288 23.6303 17.5247 23.7373 17.0104C24.0212 15.6363 24.2269 14.2415 24.6671 12.9044C24.9428 12.0651 25.2472 11.234 25.8109 10.5469C26.8312 9.30848 28.1314 8.5062 29.7812 8.41569C30.4888 8.37866 31.1554 8.60083 31.8342 8.83123C32.7517 9.14391 33.4882 9.70346 34.0642 10.3988C34.6484 11.0941 35.0639 11.9416 35.2162 12.8838C35.3437 13.6779 35.4054 14.4637 35.2162 15.2536C35.1997 15.3236 35.1997 15.4017 35.2038 15.4758C35.2038 15.5293 35.2203 15.5828 35.2367 15.6692H35.2326ZM22.8116 43.5558C22.6923 44.9259 22.8486 46.2918 23.1695 47.6248C23.5275 49.1019 24.0376 50.5377 24.6548 51.9284C25.3172 53.426 26.1277 54.8331 27.2221 56.055C27.7734 56.6721 28.3823 57.2358 29.0283 57.7707C29.9334 58.5236 30.9579 59.0502 31.9823 59.5809C33.1631 60.194 34.4756 60.4737 35.7675 60.6877C37.4008 60.9592 39.0383 61.2143 40.7293 60.9963C42.1199 60.8193 43.4488 60.4737 44.7325 59.9841C46.1972 59.4246 47.4644 58.4865 48.5958 57.3963C49.4845 56.5405 50.221 55.5531 50.9039 54.5204C51.6651 53.3643 52.1423 52.0929 52.5743 50.7969C52.8994 49.8219 53.0927 48.8262 53.2367 47.8017C53.4424 46.3329 53.5659 44.8765 53.4712 43.3953C53.426 42.6877 53.2491 42.0006 53.1832 41.3012C53.068 40.071 52.5167 39.063 51.5128 38.3841C50.3444 37.5942 49.0772 37.4872 47.8059 38.199C46.876 38.7215 46.2671 39.4991 45.9874 40.5318C45.7775 41.2971 45.9462 42.0294 46.1437 42.7823C46.6292 44.642 46.5263 46.4811 45.7858 48.2749C45.2139 49.6614 44.4157 50.8545 43.1403 51.7021C42.2927 52.2657 41.3588 52.5291 40.3714 52.636C38.3554 52.8541 36.5656 52.1711 34.9117 51.1179C33.9407 50.5007 33.1261 49.6943 32.6324 48.6123C32.2621 47.8017 31.9741 46.9707 31.9494 46.0737C31.8959 44.1812 32.4843 42.4984 33.6157 40.9926C34.2904 40.0916 35.068 39.3099 36.0596 38.7544C36.7919 38.343 37.5243 37.9151 38.3636 37.7917C39.532 37.6189 40.6758 37.6518 41.8484 38.0056C43.1362 38.3924 44.8559 37.6518 45.65 36.4587C46.9007 34.5825 45.9832 31.7149 43.708 31.0607C41.7167 30.4888 39.7419 30.1432 37.6642 30.5629C35.8086 30.9373 34.1794 31.7355 32.7188 32.908C31.538 33.8584 30.5999 35.0187 29.7524 36.2653C29.5179 36.6109 29.3204 37.0141 28.9419 37.2404C28.4111 37.5572 27.8351 37.4296 27.4031 36.9318C26.9711 36.434 26.967 35.8168 27.3826 35.2696C27.5142 35.0927 27.687 34.9323 27.7652 34.7348C28.0738 33.9448 28.6991 33.3729 29.2258 32.764C30.172 31.6655 31.287 30.7357 32.5172 29.9252C33.6363 29.1887 34.8747 28.802 36.0884 28.3371C36.4093 28.2136 36.5821 28.1067 36.7302 27.794C37.1293 26.9464 37.7094 26.1976 38.1826 25.3871C38.4788 24.8811 38.9026 24.412 39.2111 23.9101C39.7254 23.0708 40.4084 22.359 40.8856 21.4991C41.3053 20.7503 41.6962 19.9768 41.4575 19.1169C41.0667 17.714 39.3757 16.5537 37.7012 17.2326C36.5368 17.7057 35.6152 18.4916 34.78 19.372C34.1176 20.0715 33.447 20.7668 32.8093 21.4909C31.5668 22.9062 30.3901 24.3709 29.2998 25.8973C28.7115 26.7243 28.1643 27.5924 27.6294 28.4646C26.9752 29.5343 26.3704 30.6287 25.8109 31.7396C24.8317 33.6774 24.05 35.7016 23.5316 37.8164C23.0708 39.6925 22.6676 41.5809 22.8157 43.5476L22.8116 43.5558ZM39.6637 50.1057C40.7375 50.1633 41.6591 49.8342 42.4326 48.9908C42.8029 48.5876 43.0374 48.1391 43.2802 47.6742C43.9302 46.4276 44.1606 45.1233 43.8109 43.7492C43.5723 42.807 43.2678 41.8813 43.3912 40.8939C43.4283 40.5853 43.276 40.5359 43.0251 40.5812C42.2475 40.7252 41.5028 40.5524 40.7704 40.3137C39.8571 40.0175 38.9519 40.1163 38.1085 40.4989C36.9236 41.0379 35.9444 41.8484 35.2943 43.0168C34.7266 44.0289 34.3357 45.0822 34.4879 46.2589C34.636 47.4109 35.2367 48.2667 36.2077 48.9291C37.2568 49.6449 38.3389 50.1592 39.6678 50.1057H39.6637ZM24.3298 28.9542C24.519 28.8843 24.5519 28.7403 24.6136 28.6292C24.9551 28.0326 25.276 27.4196 25.6422 26.8436C26.4116 25.634 27.2139 24.4367 28.0861 23.3012C28.5922 22.6429 29.0735 21.9599 29.629 21.3345C30.3119 20.5652 30.9414 19.7423 31.6779 19.0223C32.114 18.5944 32.2868 18.0925 32.3526 17.5C32.4431 16.6525 32.6036 15.8132 32.7476 14.9697C32.8916 14.1222 32.8587 13.3117 32.4596 12.5176C31.9618 11.5179 30.3695 10.6827 29.3327 11.0571C28.2836 11.4356 27.5883 12.1803 27.2139 13.1965C26.8683 14.1469 26.6914 15.1508 26.4939 16.1464C26.103 18.1007 25.597 20.0303 25.3172 22.0134C25.0662 23.7867 24.7165 25.5476 24.4532 27.3167C24.375 27.8433 24.2063 28.3741 24.3256 28.9501L24.3298 28.9542ZM20.7586 38.6145C20.9026 38.0139 21.1042 37.5325 21.1206 37.0017C21.1371 36.3805 21.133 35.7592 21.1782 35.1421C21.2975 33.4799 21.4662 31.8219 21.5773 30.1556C21.6678 28.7773 21.89 27.4113 22.1286 26.0454C22.2808 25.1649 22.3714 24.268 22.5524 23.3958C22.7416 22.4701 22.7951 21.5279 22.9597 20.6022C23.0543 20.0673 22.9597 19.9069 22.396 19.874C22.0134 19.8493 21.6184 19.7999 21.2482 19.874C20.236 20.0715 19.3597 20.4623 18.9442 21.5403C18.6397 22.3302 18.5368 23.1284 18.5368 23.9595C18.5368 25.8973 18.8454 27.8063 19.0511 29.7236C19.2445 31.5009 19.6024 33.2619 20.0056 35.0104C20.2731 36.1665 20.2978 37.3761 20.7586 38.6187V38.6145Z" fill="#ED2D2E"/>
</g>
<defs>
<clipPath id="clip0_104_2511">
<rect width="39.9291" height="55.1685" fill="white" transform="translate(16.0352 8.41577)"/>
</clipPath>
</defs>
</svg>
