<svg width="45" height="20" viewBox="0 0 45 20" fill="none" xmlns="http://www.w3.org/2000/svg">
<path d="M9.86445 14.7381C9.61491 14.447 9.39305 14.1325 9.17109 13.8179C8.95603 13.5131 8.74088 13.2082 8.50037 12.9242C8.26466 12.6457 8.05515 12.3495 7.84557 12.0533C7.616 11.7288 7.38635 11.4042 7.12207 11.1025C6.7729 10.7034 6.46791 10.2664 6.16286 9.8294C6.00704 9.60615 5.85121 9.38288 5.68946 9.16463M9.86445 14.7381L9.78634 14.805M9.86445 14.7381C10.066 14.9733 10.2448 15.2253 10.4234 15.4771C10.6723 15.8279 10.921 16.1785 11.2311 16.4836L12.8784 17.8779C13.5856 17.3086 13.605 16.9794 13.0516 16.2654C12.7439 15.8678 12.7878 15.6289 13.2352 15.3733M9.86445 14.7381L9.78635 14.805C9.78635 14.805 9.78635 14.805 9.78634 14.805M9.78634 14.805C9.53703 14.5141 9.31551 14.201 9.0974 13.8919L9.08822 13.8789C8.87233 13.5729 8.65943 13.2711 8.42188 12.9906L8.42186 12.9906C8.18318 12.7086 7.97133 12.4092 7.76239 12.1138C7.75213 12.0993 7.74188 12.0848 7.73163 12.0703C7.51174 11.7596 7.29349 11.4543 7.0447 11.1703L7.04466 11.1702C6.69198 10.7671 6.38105 10.3218 6.07388 9.88176C5.91887 9.65972 5.76481 9.43906 5.60684 9.22589M9.78634 14.805C9.98457 15.0364 10.1602 15.2838 10.3388 15.5357C10.3741 15.5854 10.4095 15.6352 10.4452 15.6852C10.6604 15.9862 10.8858 16.2881 11.159 16.5569L11.1591 16.557C11.2528 16.6489 11.2733 16.7189 11.2647 16.7774C11.2548 16.8436 11.2033 16.9286 11.0783 17.0373L11.0782 17.0374C10.9092 17.1845 10.7252 17.3071 10.5347 17.4341C10.4695 17.4775 10.4035 17.5215 10.3371 17.5671C10.0807 17.7433 9.82512 17.9402 9.62142 18.2157L9.62137 18.2158C9.42906 18.4763 9.4001 18.7038 9.47154 18.9123C9.53328 19.0925 9.66857 19.2488 9.78842 19.3872C9.79779 19.3981 9.80707 19.4088 9.81621 19.4194C9.96856 19.5965 10.1556 19.6779 10.3486 19.6817C10.5384 19.6855 10.7255 19.6143 10.8854 19.5024C11.5881 19.0118 12.2752 18.4953 12.9428 17.9581L12.9429 17.9581C13.2971 17.6729 13.5114 17.4247 13.5401 17.1361C13.5686 16.849 13.4092 16.5589 13.1329 16.2024C12.9822 16.0076 12.9421 15.8808 12.9611 15.7864C12.9801 15.6918 13.067 15.5879 13.2862 15.4626L13.2352 15.3733M5.60684 9.22589L5.68946 9.16463M5.60684 9.22589C5.60683 9.22588 5.60683 9.22588 5.60682 9.22587L5.68946 9.16463M5.60684 9.22589C5.44113 9.00241 5.27108 8.77972 5.10055 8.55642C4.81177 8.17824 4.52163 7.7983 4.24895 7.40979M5.68946 9.16463C5.52184 8.93857 5.35099 8.71485 5.18018 8.49119C4.89249 8.11447 4.60492 7.73792 4.33314 7.3507M14.2269 1.21433L14.2218 1.1116C13.8665 1.12946 13.5079 1.12312 13.1469 1.11537L13.1468 1.11536C12.089 1.094 11.2343 1.59039 10.4364 2.15005C9.86763 2.54847 9.307 2.95922 8.76405 3.3989L8.76401 3.39893C8.19119 3.86327 7.59853 4.29791 7.00333 4.73441C6.62078 5.01496 6.23719 5.29627 5.85715 5.58673C5.71376 5.69622 5.60539 5.75801 5.51155 5.76627C5.43173 5.77329 5.33881 5.7424 5.22103 5.59225C5.17141 5.52833 5.10948 5.47491 5.0567 5.42938C5.05187 5.42521 5.0471 5.4211 5.04244 5.41706C4.98325 5.3658 4.93648 5.32288 4.9039 5.27363C4.58592 4.79078 4.03463 4.80086 3.7077 5.00249L31.9755 8.34093M14.2269 1.21433L14.2215 1.11161C15.0423 1.06842 15.8008 1.31942 16.5372 1.56311C16.7027 1.61786 16.867 1.67225 17.0307 1.72285L17.0309 1.72292C17.0856 1.73994 17.1426 1.76208 17.1953 1.78255C17.2227 1.79316 17.2488 1.80333 17.2729 1.8121C17.3488 1.83971 17.4199 1.86026 17.4952 1.86571L17.4956 1.86574C17.97 1.90213 18.4222 2.02168 18.8635 2.15173C18.9481 2.17668 19.0322 2.20197 19.116 2.22716C19.472 2.33417 19.8221 2.43942 20.1812 2.50897L20.1616 2.60995M14.2269 1.21433C15.0265 1.17225 15.7625 1.41555 16.4979 1.65866C16.6652 1.71394 16.8324 1.76922 17.0003 1.82112C17.0521 1.83724 17.1023 1.85679 17.1526 1.87635C17.2595 1.91791 17.3665 1.95952 17.4878 1.9683C18.0383 2.01053 18.5615 2.16783 19.0844 2.32506C19.4407 2.4322 19.7969 2.53932 20.1616 2.60995M14.2269 1.21433C13.8675 1.2324 13.5054 1.22595 13.1447 1.2182C12.122 1.19754 11.2906 1.67652 10.4954 2.23426L24.4698 3.74866C24.161 3.67237 23.8565 3.57411 23.5523 3.47594C23.1152 3.33488 22.6787 3.19399 22.2304 3.11863M20.1616 2.60995L20.1811 2.50895C20.5134 2.57285 20.8375 2.6635 21.1573 2.75295C21.1783 2.75882 21.1993 2.76469 21.2203 2.77055C21.5621 2.866 21.8999 2.9582 22.2476 3.01722L22.2304 3.11863M20.1616 2.60995C20.4896 2.67302 20.8099 2.76259 21.1306 2.85228C21.4927 2.95354 21.8554 3.05496 22.2304 3.11863M22.2304 3.11863L22.2474 3.01719C22.6353 3.0824 23.013 3.1954 23.3843 3.31387C23.4515 3.33531 23.5184 3.3569 23.5851 3.37844C23.8892 3.47655 24.1895 3.57345 24.4944 3.6488C24.6899 3.69704 24.8861 3.74422 25.0827 3.79149C25.5673 3.90803 26.054 4.02506 26.5364 4.15955L26.5365 4.15957C26.8126 4.23671 27.0863 4.31839 27.3591 4.39975C27.9611 4.57937 28.5581 4.7575 29.1646 4.88216L29.1646 4.88217C30.0333 5.06122 30.6991 5.47558 31.2061 6.13236C31.6923 6.76213 32.0582 7.49167 32.0783 8.33849M32.0783 8.33849L31.9755 8.34093M32.0783 8.33849C32.0783 8.33849 32.0783 8.33848 32.0783 8.33848L31.9755 8.34093M32.0783 8.33849C32.0912 8.8804 31.8498 9.57012 31.4716 10.1747C31.0934 10.7794 30.5651 11.32 29.9843 11.5469M31.9755 8.34093C32 9.3699 31.051 11.0199 29.9468 11.4511M29.9843 11.5469L29.9468 11.4511M29.9843 11.5469C28.8077 12.007 27.7172 11.8164 26.5806 11.5907C26.3402 11.543 26.0978 11.4975 25.8545 11.4518C25.1545 11.3204 24.4478 11.1877 23.7649 10.9989L23.7648 10.9989C23.4153 10.9019 23.0572 10.858 22.6908 10.813C22.584 10.7999 22.4765 10.7867 22.3682 10.7721C21.8937 10.708 21.4129 10.6168 20.9604 10.3775L20.9602 10.3774C20.8804 10.3349 20.7922 10.3129 20.6937 10.2993C20.6303 10.2906 20.5695 10.286 20.5049 10.2811C20.4643 10.278 20.4223 10.2748 20.3773 10.2705C20.1534 10.2487 19.9077 10.1998 19.6951 9.97507L19.6951 9.97502C19.547 9.81823 19.456 9.66082 19.421 9.49471C19.3859 9.32822 19.4094 9.16373 19.4718 8.99703C19.4718 8.99697 19.4718 8.99692 19.4718 8.99686L19.5682 9.03294M29.9843 11.5469C29.9843 11.5469 29.9842 11.5469 29.9842 11.5469L29.9468 11.4511M29.9468 11.4511L32.1092 13.2594M38.4532 8.64046C39.065 8.18305 39.6852 7.73745 40.3054 7.29185C40.7706 6.95766 41.2357 6.62346 41.6973 6.28429L33.3982 6.68189C33.5455 6.89803 33.7197 7.03642 33.9325 7.08026C34.1427 7.12358 34.3707 7.07028 34.6177 6.94696C34.744 6.88391 34.8529 6.8029 34.9531 6.7232C34.9796 6.70209 35.0052 6.6813 35.0304 6.6609C35.1026 6.60237 35.1708 6.54709 35.244 6.49698L35.2442 6.49686C36.3233 5.75481 37.3658 4.96331 38.4061 4.17344C38.7491 3.91301 39.0918 3.65276 39.4356 3.39452L39.4356 3.3945C40.0875 2.90445 40.7926 2.76245 41.5024 3.08325L41.5024 3.08329C42.1243 3.36367 42.4267 3.96413 42.4491 4.65296C42.4686 5.28944 42.1615 5.81593 41.6364 6.20138L41.6364 6.2014C41.1771 6.53891 40.7124 6.8728 40.2471 7.20706C39.6257 7.65357 39.0033 8.10074 38.3916 8.55808L38.4532 8.64046ZM38.4532 8.64046L38.3916 8.55809C38.0159 8.83907 37.6491 9.13348 37.284 9.42653C37.1845 9.50646 37.085 9.58628 36.9855 9.6657C36.5204 10.0371 36.0537 10.4006 35.5653 10.7307C34.9707 11.1326 34.3976 11.5617 33.8282 11.9914C33.7791 12.0285 33.73 12.0656 33.681 12.1026C33.1606 12.4956 32.6421 12.8872 32.1092 13.2594M38.4532 8.64046L32.1092 13.2594M32.1092 13.2594C31.2987 13.8249 30.5148 14.4322 29.7334 15.0376C29.3674 15.3212 29.0019 15.6043 28.6344 15.8826C28.1756 16.2289 27.6572 16.2947 27.071 16.2366C26.7724 16.2069 26.4792 16.1465 26.1823 16.0822C26.1535 16.076 26.1246 16.0697 26.0957 16.0635C25.8284 16.0054 25.5573 15.9465 25.2827 15.9092L25.2827 15.9091C24.9172 15.8597 24.5656 15.753 24.2052 15.6436C24.1242 15.619 24.0428 15.5943 23.9607 15.5701C23.5177 15.4395 23.0592 15.3248 22.5698 15.3428C22.5653 15.3428 22.5555 15.3413 22.534 15.3337C22.5297 15.3322 22.5237 15.33 22.5167 15.3273C22.499 15.3206 22.4748 15.3115 22.4553 15.3058C21.0996 14.8978 19.7133 14.6209 18.3338 14.3454C18.28 14.3347 18.2263 14.3239 18.1725 14.3132L18.1725 14.3132C17.3722 14.1533 16.5653 13.9744 15.794 13.7635L15.7939 13.7635C14.431 13.3912 13.1554 13.2316 11.9118 14.1292L11.9117 14.1293C11.8407 14.1806 11.7785 14.1923 11.7245 14.1803C11.6683 14.1678 11.6021 14.1255 11.5345 14.0313L11.5344 14.0312C11.3307 13.7481 11.1288 13.4626 10.9265 13.1766C10.3315 12.3353 9.73368 11.49 9.08031 10.6926L9.0045 10.7547L9.0803 10.6926C8.7293 10.2643 8.40067 9.81968 8.07044 9.37292C8.01634 9.29973 7.9622 9.22648 7.90791 9.15324C7.52302 8.63398 7.13127 8.11577 6.69885 7.6274C6.64055 7.56088 6.60506 7.48461 6.59955 7.42133C6.5946 7.36455 6.61236 7.31875 6.66778 7.2847L6.66826 7.2844C6.94121 7.1146 7.19218 6.91124 7.43696 6.7129C7.55917 6.61387 7.67983 6.5161 7.80092 6.42437L7.80097 6.42434C8.21583 6.10971 8.64209 5.80316 9.06952 5.49577C9.75206 5.00491 10.4376 4.51192 11.0843 3.98051C12.2193 3.04904 13.4452 2.66159 14.8507 3.03725L14.8509 3.03729C15.0709 3.09575 15.2908 3.15225 15.5103 3.20866C15.9973 3.33381 16.4826 3.45852 16.9643 3.60317L16.9939 3.50466L16.9643 3.60317C17.5581 3.78142 18.162 3.92516 18.7626 4.0681L18.7718 4.0703C19.3764 4.2142 19.9776 4.35748 20.5676 4.53526C20.9948 4.66426 21.4269 4.76943 21.8561 4.8739L21.9248 4.89064C22.3776 5.00092 22.827 5.11187 23.2701 5.25143L23.2701 5.25144C24.2227 5.55121 25.2131 5.77795 26.194 5.98468C26.4597 6.04105 26.7177 6.12126 26.9809 6.2031C27.0105 6.21229 27.0401 6.22149 27.0698 6.23068C27.3622 6.32123 27.6617 6.41034 27.9751 6.46195L27.9752 6.46196C28.8281 6.60221 29.5654 6.87087 29.9891 7.72807C30.1966 8.14783 30.1466 8.68382 29.9162 9.14057C29.6858 9.59731 29.2865 9.95214 28.8238 10.0262C28.2066 10.1242 27.6213 10.0241 27.0313 9.87736C26.8767 9.83893 26.721 9.79703 26.5642 9.75483C26.1283 9.63754 25.6838 9.51793 25.2306 9.46401C24.456 9.37137 23.6828 9.1748 22.9031 8.97658C22.6037 8.90048 22.3034 8.82414 22.0018 8.75335L21.9783 8.85348M21.9783 8.85348C21.8345 8.81956 21.692 8.78073 21.5495 8.74192C21.1497 8.63303 20.7504 8.52426 20.3271 8.52426C19.9535 8.52426 19.6884 8.71017 19.5682 9.03294M21.9783 8.85348C22.2757 8.92329 22.5735 8.99899 22.8714 9.07473C23.6535 9.27355 24.4366 9.47265 25.2184 9.56614L21.9783 8.85348ZM19.5682 9.03294C19.4531 9.34021 19.4919 9.61003 19.7699 9.9044L19.5682 9.03294ZM4.33314 7.3507L4.24901 7.40988C4.24899 7.40985 4.24897 7.40982 4.24895 7.40979M4.33314 7.3507C4.11333 7.03826 3.89094 7.00341 3.60649 7.21643L3.66815 7.29876C3.8 7.20002 3.89772 7.17383 3.97601 7.18778C4.05557 7.20195 4.14557 7.26288 4.24895 7.40979M4.33314 7.3507L4.24895 7.40979M13.2352 15.3733C13.702 15.1073 14.2334 15.1616 14.6924 15.2803C14.727 15.2892 14.7616 15.2982 14.7962 15.3071C15.9703 15.6094 17.1406 15.9107 18.3476 16.055C18.4304 16.064 18.5157 16.0976 18.5881 16.1389C19.0942 16.4264 19.6585 16.5083 20.2185 16.5895C20.4682 16.6257 20.717 16.6618 20.9594 16.716M13.2352 15.3733L13.2861 15.4627C13.7172 15.2171 14.2151 15.2631 14.6666 15.3799L14.6668 15.3799C14.7022 15.3891 14.7377 15.3982 14.7731 15.4073C15.9453 15.7092 17.1215 16.0121 18.3354 16.1571L18.3364 16.1572C18.401 16.1643 18.4727 16.1915 18.5371 16.2282L18.5373 16.2283C18.9184 16.4448 19.3283 16.5477 19.7357 16.6188C19.8968 16.6469 20.0547 16.6698 20.2105 16.6924C20.4564 16.728 20.6971 16.7628 20.937 16.8164M20.9594 16.716L20.937 16.8164M20.9594 16.716C21.2385 16.7784 21.5147 16.8624 21.7915 16.9466C22.3969 17.1307 23.0054 17.3157 23.6539 17.2776M20.9594 16.716L23.8013 17.3215C23.7816 17.3169 23.762 17.3088 23.7427 17.3008C23.7126 17.2883 23.683 17.276 23.6539 17.2776M20.937 16.8164C21.2132 16.8781 21.4819 16.9599 21.7554 17.0431C21.9204 17.0933 22.0872 17.1441 22.2585 17.1913C22.7067 17.3149 23.1707 17.409 23.66 17.3803L23.6539 17.2776M20.937 16.8164L23.6539 17.2776M23.6539 17.2776L23.6595 17.3803C23.6588 17.3803 23.6644 17.3801 23.6884 17.3897C23.6914 17.3909 23.6949 17.3924 23.699 17.3941C23.7182 17.4021 23.7486 17.4148 23.7777 17.4216C24.0397 17.4852 24.3019 17.5566 24.5675 17.6289C25.455 17.8704 26.3789 18.1218 27.4478 18.1279L27.4635 18.1298C28.0686 18.2036 28.8076 18.0721 29.45 17.6048C30.0463 17.1716 30.636 16.7274 31.225 16.2837C31.5369 16.0487 31.8487 15.8139 32.1611 15.581C32.6448 15.2206 33.1295 14.861 33.6144 14.5013C34.4974 13.8462 35.3807 13.1909 36.2589 12.5299M23.6539 17.2776L36.2589 12.5299M36.2589 12.5299C36.2589 12.53 36.2588 12.53 36.2588 12.53L36.197 12.4478L36.2589 12.5299ZM36.2589 12.5299C36.6598 12.2285 37.0537 11.9208 37.4468 11.6139C38.1421 11.0708 38.8347 10.5298 39.559 10.029L39.5591 10.029C40.0542 9.68641 40.5309 9.32113 41.0051 8.95771L41.0288 8.93948C41.5116 8.56953 41.9921 8.2019 42.4912 7.85893L42.4913 7.85887C43.1097 7.43298 43.7427 6.91248 44.0356 6.20485L44.0357 6.20469C44.5335 4.9964 44.4778 3.74181 43.7061 2.61647C43.212 1.89344 42.5135 1.32523 41.6472 1.15598L41.6472 1.15598C40.3268 0.898123 39.1058 1.21806 38.0481 2.1118L38.0481 2.11182C37.6683 2.43294 37.2633 2.71691 36.8537 3.00403C36.6288 3.16171 36.4026 3.32034 36.1784 3.48659M36.2589 12.5299L36.1784 3.48659M36.1784 3.48659C36.1784 3.48656 36.1785 3.48654 36.1785 3.48651L36.2397 3.56921L36.1784 3.48659ZM36.1784 3.48659C36.043 3.58671 35.9075 3.68675 35.7719 3.78682C35.0395 4.32749 34.3058 4.86905 33.5878 5.42989M36.1784 3.48659L33.5878 5.42989M33.5878 5.42989C33.5879 5.42988 33.5879 5.42986 33.5879 5.42985L33.6512 5.51095L33.5878 5.42989ZM33.5878 5.42989C33.1811 5.74726 33.1333 6.29446 33.3981 6.68176L33.5878 5.42989Z" fill="#ED2D2E" stroke="#ED2D2E" stroke-width="0.205714"/>
</svg>
